<svg width="120" height="120" viewBox="0 0 120 120" fill="none" xmlns="http://www.w3.org/2000/svg">
<g clip-path="url(#clip0_265_362)">
<path opacity="0.1" d="M60 120C93.1371 120 120 118.388 120 116.4C120 114.412 93.1371 112.8 60 112.8C26.8629 112.8 0 114.412 0 116.4C0 118.388 26.8629 120 60 120Z" fill="#0089E8"/>
<path fill-rule="evenodd" clip-rule="evenodd" d="M16.8 23.5614C16.8 21.8154 18.2155 20.3999 19.9616 20.3999C21.7076 20.3999 23.1231 21.8154 23.1231 23.5614V30.0652C23.1231 31.8112 21.7076 33.2267 19.9616 33.2267C18.2155 33.2267 16.8 31.8112 16.8 30.0652V23.5614ZM19.9616 22.7999C19.541 22.7999 19.2001 23.1408 19.2001 23.5614V30.0652C19.2001 30.4858 19.541 30.8267 19.9616 30.8267C20.3821 30.8267 20.7232 30.4858 20.7232 30.0652V23.5614C20.7232 23.1408 20.3821 22.7999 19.9616 22.7999ZM31.2001 35.9999C31.2001 32.6862 33.8863 29.9999 37.2001 29.9999H77.131C75.4148 32.0427 74.1762 34.4999 73.5868 37.1999H31.2001V35.9999ZM73.2423 39.5999H26.4C23.0863 39.5999 20.4 42.2862 20.4 45.5999V51.5999H77.131C74.6777 48.6797 73.2002 44.9123 73.2002 40.7999C73.2002 40.3964 73.2144 39.9963 73.2423 39.5999ZM92.4001 57.4298V81.5999H94.8C98.1138 81.5999 100.8 78.9136 100.8 75.5999V53.669C98.4584 55.6362 95.5722 56.976 92.4001 57.4298ZM103.2 51.1933V75.5999C103.2 80.2391 99.4392 83.9999 94.8 83.9999H92.4001V85.1999C92.4001 89.8391 88.6393 93.5999 84.0002 93.5999H26.4002C21.761 93.5999 18 89.8391 18 85.1999V45.5999C18 40.9607 21.7609 37.1999 26.4 37.1999H28.8V35.9999C28.8 31.3607 32.5609 27.5999 37.2001 27.5999H79.2002V27.9308C82.1204 25.4775 85.8877 23.9999 90.0002 23.9999C99.2785 23.9999 106.8 31.5215 106.8 40.7999C106.8 44.724 105.455 48.3338 103.2 51.1933ZM20.4 58.7999H90.0002V81.5999V83.9999V85.1999C90.0002 88.5136 87.3139 91.1999 84.0002 91.1999H26.4002C23.0864 91.1999 20.4 88.5136 20.4 85.1999V58.7999ZM100.362 87.5999C98.6155 87.5999 97.2001 89.0154 97.2001 90.7614V97.2652C97.2001 99.0112 98.6155 100.427 100.362 100.427C102.108 100.427 103.523 99.0112 103.523 97.2652V90.7614C103.523 89.0154 102.108 87.5999 100.362 87.5999ZM99.6001 90.7614C99.6001 90.3408 99.941 89.9999 100.362 89.9999C100.782 89.9999 101.123 90.3408 101.123 90.7614V97.2652C101.123 97.6858 100.782 98.0267 100.362 98.0267C99.941 98.0267 99.6001 97.6858 99.6001 97.2652V90.7614ZM75.6001 40.7999C75.6001 32.847 82.0472 26.3999 90.0002 26.3999C97.9531 26.3999 104.4 32.847 104.4 40.7999C104.4 48.7528 97.9531 55.1999 90.0002 55.1999C82.0472 55.1999 75.6001 48.7528 75.6001 40.7999ZM87.0002 32.9999C87.0002 31.343 88.3433 29.9999 90.0002 29.9999C91.657 29.9999 93.0002 31.343 93.0002 32.9999V40.1999C93.0002 41.8568 91.657 43.1999 90.0002 43.1999C88.3433 43.1999 87.0002 41.8568 87.0002 40.1999V32.9999ZM90.0002 32.3999C89.6688 32.3999 89.4001 32.6685 89.4001 32.9999V40.1999C89.4001 40.5313 89.6688 40.7999 90.0002 40.7999C90.3315 40.7999 90.6001 40.5313 90.6001 40.1999V32.9999C90.6001 32.6685 90.3315 32.3999 90.0002 32.3999ZM90.0002 51.5999C88.3433 51.5999 87.0002 50.2568 87.0002 48.5999C87.0002 46.943 88.3433 45.5999 90.0002 45.5999C91.657 45.5999 93.0002 46.943 93.0002 48.5999C93.0002 50.2568 91.657 51.5999 90.0002 51.5999ZM89.4001 48.5999C89.4001 48.9313 89.6688 49.1999 90.0002 49.1999C90.3315 49.1999 90.6001 48.9313 90.6001 48.5999C90.6001 48.2685 90.3315 47.9999 90.0002 47.9999C89.6688 47.9999 89.4001 48.2685 89.4001 48.5999ZM48.6 69.5999C46.9432 69.5999 45.6 70.943 45.6 72.5999C45.6 74.2568 46.9432 75.5999 48.6 75.5999H81.0002C82.657 75.5999 84 74.2568 84 72.5999C84 70.9431 82.657 69.5999 81.0002 69.5999H48.6ZM48 72.5999C48 72.2685 48.2687 71.9999 48.6 71.9999H81.0002C81.3315 71.9999 81.6001 72.2685 81.6001 72.5999C81.6001 72.9313 81.3315 73.1999 81.0002 73.1999H48.6C48.2687 73.1999 48 72.9313 48 72.5999ZM33 77.9999C35.9824 77.9999 38.4001 75.5822 38.4001 72.5999C38.4001 69.6176 35.9824 67.1999 33 67.1999C30.0177 67.1999 27.6 69.6176 27.6 72.5999C27.6 75.5822 30.0177 77.9999 33 77.9999Z" fill="#0089E8"/>
</g>
<defs>
<clipPath id="clip0_265_362">
<rect width="120" height="120" fill="white"/>
</clipPath>
</defs>
</svg>
