<svg width="32" height="32" viewBox="0 0 32 32" fill="none" xmlns="http://www.w3.org/2000/svg">
<path d="M22.3333 4.74667V2.66667C22.3333 2.12 21.88 1.66667 21.3333 1.66667C20.7866 1.66667 20.3333 2.12 20.3333 2.66667V4.66667H11.6666V2.66667C11.6666 2.12 11.2133 1.66667 10.6666 1.66667C10.12 1.66667 9.66665 2.12 9.66665 2.66667V4.74667C6.06665 5.08 4.31998 7.22667 4.05331 10.4133C4.02665 10.8 4.34665 11.12 4.71998 11.12H27.28C27.6666 11.12 27.9866 10.7867 27.9466 10.4133C27.68 7.22667 25.9333 5.08 22.3333 4.74667Z" fill="#73BBFF"/>
<path d="M28 14.4533V16.7733C28 17.5867 27.28 18.2133 26.48 18.08C26.1067 18.0267 25.72 17.9867 25.3333 17.9867C23.3895 17.9902 21.5263 18.7639 20.1518 20.1384C18.7773 21.5129 18.0035 23.3762 18 25.32C18 25.9333 18.24 26.7867 18.4933 27.56C18.5618 27.7609 18.5812 27.9752 18.55 28.1851C18.5188 28.395 18.4378 28.5944 18.3139 28.7667C18.1899 28.9389 18.0265 29.079 17.8374 29.1753C17.6483 29.2715 17.4389 29.3211 17.2267 29.32H10.6667C6 29.32 4 26.6533 4 22.6533V14.44C4 13.7067 4.6 13.1067 5.33333 13.1067H26.6667C27.4 13.12 28 13.72 28 14.4533Z" fill="#0089E8"/>
<path d="M25.3333 20C22.3867 20 20 22.3867 20 25.3333C20 26.3333 20.28 27.28 20.7733 28.08C21.6933 29.6267 23.3867 30.6667 25.3333 30.6667C27.28 30.6667 28.9733 29.6267 29.8933 28.08C30.3867 27.28 30.6667 26.3333 30.6667 25.3333C30.6667 22.3867 28.28 20 25.3333 20ZM28.0933 24.76L25.2533 27.3867C25.0667 27.56 24.8133 27.6533 24.5733 27.6533C24.32 27.6533 24.0667 27.56 23.8667 27.36L22.5467 26.04C22.16 25.6533 22.16 25.0133 22.5467 24.6267C22.9333 24.24 23.5733 24.24 23.96 24.6267L24.6 25.2667L26.7333 23.2933C27.1333 22.92 27.7733 22.9467 28.1467 23.3467C28.52 23.7467 28.4933 24.3733 28.0933 24.76ZM11.3333 20C10.9867 20 10.64 19.8533 10.3867 19.6133C10.1467 19.36 10 19.0133 10 18.6667C10 18.32 10.1467 17.9733 10.3867 17.72C10.6933 17.4133 11.16 17.2667 11.6 17.36C11.68 17.3733 11.76 17.4 11.84 17.44C11.92 17.4667 12 17.5067 12.08 17.56L12.28 17.72C12.52 17.9733 12.6667 18.32 12.6667 18.6667C12.6667 19.0133 12.52 19.36 12.28 19.6133L12.08 19.7733C12 19.8267 11.92 19.8667 11.84 19.8933C11.76 19.9333 11.68 19.96 11.6 19.9733C11.5067 19.9867 11.4133 20 11.3333 20ZM16 20C15.6533 20 15.3067 19.8533 15.0533 19.6133C14.8133 19.36 14.6667 19.0133 14.6667 18.6667C14.6667 18.32 14.8133 17.9733 15.0533 17.72C15.56 17.2267 16.4533 17.2267 16.9467 17.72C17.1867 17.9733 17.3333 18.32 17.3333 18.6667C17.3333 19.0133 17.1867 19.36 16.9467 19.6133C16.6933 19.8533 16.3467 20 16 20ZM11.3333 24.6667C10.9867 24.6667 10.64 24.52 10.3867 24.28C10.1467 24.0267 10 23.68 10 23.3333C10 22.9867 10.1467 22.64 10.3867 22.3867C10.52 22.2667 10.6533 22.1733 10.8267 22.1067C11.32 21.8933 11.9067 22.0133 12.28 22.3867C12.52 22.64 12.6667 22.9867 12.6667 23.3333C12.6667 23.68 12.52 24.0267 12.28 24.28C12.0267 24.52 11.68 24.6667 11.3333 24.6667Z" fill="#73BBFF"/>
</svg>
