<svg width="110" height="28" viewBox="0 0 110 28" fill="none" xmlns="http://www.w3.org/2000/svg">
<path d="M19.4375 23.1719C19.4375 23.4219 19.4271 23.6927 19.4062 23.9844C19.3854 24.2656 19.3385 24.5417 19.2656 24.8125C19.1927 25.0833 19.0833 25.3333 18.9375 25.5625C18.8021 25.7917 18.6146 25.9792 18.375 26.125H18.0312C17.6667 26.1458 17.3177 26.1094 16.9844 26.0156C16.651 25.9323 16.3281 25.8281 16.0156 25.7031C15.8177 25.4635 15.6823 25.1979 15.6094 24.9062C15.5365 24.6146 15.5 24.3281 15.5 24.0469C15.5 23.9115 15.5156 23.7812 15.5469 23.6562C15.5781 23.5312 15.5938 23.401 15.5938 23.2656C15.5938 23.1094 15.5625 22.9531 15.5 22.7969C15.4375 22.6302 15.4062 22.4583 15.4062 22.2812C15.4062 22.0833 15.4427 21.8906 15.5156 21.7031C15.5885 21.5052 15.625 21.2917 15.625 21.0625C15.625 20.7292 15.5885 20.3906 15.5156 20.0469C15.4427 19.6927 15.4375 19.3385 15.5 18.9844C15.0729 18.9844 14.651 18.9531 14.2344 18.8906C13.8281 18.8281 13.4167 18.7969 13 18.7969C12.7083 18.7969 12.4323 18.8281 12.1719 18.8906C11.9115 18.9531 11.6458 18.9844 11.375 18.9844C11.0521 18.9844 10.7396 18.9531 10.4375 18.8906C10.1458 18.8281 9.83854 18.7969 9.51562 18.7969C9.50521 18.8385 9.46354 18.8646 9.39062 18.875C9.32812 18.875 9.25 18.875 9.15625 18.875C9.07292 18.8646 8.98958 18.8542 8.90625 18.8438C8.83333 18.8333 8.78125 18.8281 8.75 18.8281C8.57292 18.8281 8.39062 18.8385 8.20312 18.8594C8.01562 18.8802 7.83333 18.9219 7.65625 18.9844V19.0781C7.64583 19.1927 7.65625 19.3021 7.6875 19.4062C7.71875 19.5104 7.75521 19.6146 7.79688 19.7188C7.83854 19.8229 7.875 19.9271 7.90625 20.0312C7.94792 20.1354 7.96875 20.2448 7.96875 20.3594C7.96875 20.5365 7.92188 20.6771 7.82812 20.7812C7.73438 20.875 7.67708 21 7.65625 21.1562C7.67708 21.2083 7.70312 21.3385 7.73438 21.5469C7.76562 21.7448 7.79688 21.9583 7.82812 22.1875C7.85938 22.4167 7.88542 22.6354 7.90625 22.8438C7.92708 23.0417 7.9375 23.1615 7.9375 23.2031C7.9375 23.3073 7.91146 23.4167 7.85938 23.5312C7.80729 23.6458 7.77083 23.75 7.75 23.8438C7.72917 23.9479 7.71354 24.0729 7.70312 24.2188C7.70312 24.3542 7.6875 24.4635 7.65625 24.5469C7.60417 24.6406 7.52604 24.7292 7.42188 24.8125C7.32812 24.8958 7.21875 24.974 7.09375 25.0469C6.97917 25.1198 6.85938 25.1771 6.73438 25.2188C6.60938 25.2604 6.5 25.2812 6.40625 25.2812C6.03125 25.2812 5.70312 25.1875 5.42188 25C5.14062 24.8229 4.90104 24.5938 4.70312 24.3125C4.51562 24.0312 4.375 23.7188 4.28125 23.375C4.1875 23.0312 4.14062 22.6979 4.14062 22.375C4.14062 21.9375 4.19271 21.5208 4.29688 21.125C4.40104 20.7188 4.45312 20.3021 4.45312 19.875C4.45312 19.6354 4.42188 19.4115 4.35938 19.2031C4.24479 19.1406 4.125 19.099 4 19.0781C3.88542 19.0573 3.76562 19.0469 3.64062 19.0469C3.51562 19.0365 3.39062 19.0312 3.26562 19.0312C3.14062 19.0208 3.01562 19.0052 2.89062 18.9844C2.76562 18.9635 2.64583 18.9271 2.53125 18.875C2.41667 18.8125 2.30208 18.7552 2.1875 18.7031C2.07292 18.6406 1.95312 18.5885 1.82812 18.5469C1.71354 18.4948 1.58854 18.4688 1.45312 18.4688C1.41146 18.3229 1.35417 18.2135 1.28125 18.1406C1.20833 18.0677 1.13542 17.9948 1.0625 17.9219C1 17.849 0.942708 17.7656 0.890625 17.6719C0.838542 17.5781 0.8125 17.4375 0.8125 17.25C0.8125 17.0312 0.864583 16.8073 0.96875 16.5781C1.07292 16.349 1.20833 16.1406 1.375 15.9531C1.55208 15.7656 1.74479 15.6042 1.95312 15.4688C2.16146 15.3229 2.375 15.224 2.59375 15.1719C2.72917 15.1406 2.85938 15.1354 2.98438 15.1562C3.10938 15.1667 3.23958 15.1719 3.375 15.1719C3.47917 15.1719 3.5625 15.1562 3.625 15.125C3.6875 15.0833 3.73958 15.0469 3.78125 15.0156C3.83333 14.974 3.88021 14.9427 3.92188 14.9219C3.97396 14.901 4.04688 14.9115 4.14062 14.9531C4.11979 14.901 4.10938 14.849 4.10938 14.7969C4.10938 14.7344 4.10938 14.6771 4.10938 14.625C4.10938 14.375 4.15104 14.125 4.23438 13.875C4.31771 13.6146 4.35938 13.3542 4.35938 13.0938C4.35938 12.9479 4.32292 12.8177 4.25 12.7031C4.17708 12.5781 4.14062 12.4427 4.14062 12.2969C4.14062 12.2344 4.15625 12.1771 4.1875 12.125C4.21875 12.0625 4.23438 11.9896 4.23438 11.9062C4.23438 11.6354 4.22396 11.375 4.20312 11.125C4.18229 10.8646 4.17188 10.6042 4.17188 10.3438C4.17188 10.1458 4.20312 9.95312 4.26562 9.76562C4.32812 9.56771 4.35938 9.38542 4.35938 9.21875C4.35938 9.09375 4.3125 8.97396 4.21875 8.85938C4.13542 8.73438 4.07812 8.59896 4.04688 8.45312C4.00521 8.33854 3.99479 8.22917 4.01562 8.125C4.03646 8.01042 4.04688 7.89583 4.04688 7.78125C4.04688 7.65625 4.02604 7.53646 3.98438 7.42188C3.95312 7.30729 3.9375 7.19271 3.9375 7.07812C3.9375 6.92188 3.98438 6.77604 4.07812 6.64062C4.18229 6.49479 4.23438 6.375 4.23438 6.28125C4.23438 6.05208 4.22396 5.82812 4.20312 5.60938C4.18229 5.39062 4.17188 5.16667 4.17188 4.9375C4.17188 4.63542 4.19271 4.375 4.23438 4.15625C4.28646 3.92708 4.36979 3.73958 4.48438 3.59375C4.60938 3.44792 4.77083 3.34375 4.96875 3.28125C5.17708 3.20833 5.44271 3.17188 5.76562 3.17188C6.02604 3.17188 6.21354 3.19271 6.32812 3.23438C6.44271 3.27604 6.53646 3.33333 6.60938 3.40625C6.68229 3.46875 6.75521 3.53646 6.82812 3.60938C6.91146 3.68229 7.04688 3.75 7.23438 3.8125C7.33854 3.95833 7.40625 4.11979 7.4375 4.29688C7.47917 4.47396 7.51042 4.65625 7.53125 4.84375C7.55208 5.03125 7.57292 5.21354 7.59375 5.39062C7.61458 5.56771 7.66667 5.73438 7.75 5.89062C7.65625 6.06771 7.58854 6.25521 7.54688 6.45312C7.51562 6.64062 7.5 6.83854 7.5 7.04688C7.5 7.33854 7.52604 7.63542 7.57812 7.9375C7.63021 8.22917 7.65625 8.51042 7.65625 8.78125C7.65625 8.84375 7.64062 8.91667 7.60938 9C7.57812 9.07292 7.5625 9.15625 7.5625 9.25C7.5625 9.60417 7.52604 9.95833 7.45312 10.3125C7.38021 10.6667 7.34375 11.0312 7.34375 11.4062C7.34375 11.6771 7.38021 11.9375 7.45312 12.1875C7.52604 12.4375 7.5625 12.7083 7.5625 13C7.5625 13.3542 7.53646 13.7031 7.48438 14.0469C7.44271 14.3802 7.39583 14.724 7.34375 15.0781C7.40625 15.151 7.55208 15.2031 7.78125 15.2344C8.01042 15.2656 8.26042 15.2865 8.53125 15.2969C8.80208 15.3073 9.06771 15.3125 9.32812 15.3125C9.58854 15.3021 9.77604 15.2969 9.89062 15.2969C10.5677 15.2969 11.2448 15.2708 11.9219 15.2188C12.6094 15.1667 13.2969 15.1406 13.9844 15.1406C14.2552 15.1406 14.5208 15.151 14.7812 15.1719C15.0521 15.1823 15.3229 15.2135 15.5938 15.2656C15.6562 15.1719 15.6875 15.0573 15.6875 14.9219C15.6875 14.7969 15.6719 14.6771 15.6406 14.5625C15.6094 14.4375 15.5729 14.3177 15.5312 14.2031C15.4896 14.0781 15.4531 13.9583 15.4219 13.8438C15.3906 13.7188 15.375 13.5885 15.375 13.4531C15.375 13.1927 15.3958 12.9427 15.4375 12.7031C15.4896 12.4531 15.5417 12.2135 15.5938 11.9844C15.6458 11.7448 15.6927 11.5104 15.7344 11.2812C15.7865 11.0521 15.8125 10.8229 15.8125 10.5938C15.8125 10.3542 15.7708 10.1615 15.6875 10.0156C15.6146 9.86979 15.5521 9.69271 15.5 9.48438C15.4375 9.25521 15.401 9 15.3906 8.71875C15.3802 8.4375 15.375 8.17708 15.375 7.9375C15.375 7.84375 15.3854 7.77604 15.4062 7.73438C15.4271 7.69271 15.4479 7.66146 15.4688 7.64062C15.5 7.61979 15.526 7.59896 15.5469 7.57812C15.5677 7.54688 15.5833 7.5 15.5938 7.4375C15.5312 7.30208 15.5 7.16146 15.5 7.01562C15.5 6.83854 15.5156 6.66146 15.5469 6.48438C15.5781 6.30729 15.5938 6.13021 15.5938 5.95312C15.5938 5.86979 15.5781 5.80208 15.5469 5.75C15.5156 5.6875 15.5 5.63021 15.5 5.57812C15.5625 5.51562 15.5938 5.44271 15.5938 5.35938C15.5938 5.18229 15.5625 5 15.5 4.8125C15.4375 4.61458 15.4062 4.42188 15.4062 4.23438C15.4062 3.83854 15.4583 3.45312 15.5625 3.07812C15.6667 2.70312 15.7812 2.32812 15.9062 1.95312H15.9688C16.0521 1.96354 16.1302 1.95312 16.2031 1.92188C16.276 1.89062 16.349 1.85417 16.4219 1.8125C16.4948 1.77083 16.5677 1.73438 16.6406 1.70312C16.724 1.66146 16.8125 1.64062 16.9062 1.64062C17.0521 1.64062 17.1927 1.67708 17.3281 1.75C17.474 1.82292 17.6198 1.89062 17.7656 1.95312C18.1302 2.13021 18.401 2.3125 18.5781 2.5C18.7656 2.67708 18.8958 2.88021 18.9688 3.10938C19.0417 3.33854 19.0781 3.59375 19.0781 3.875C19.0781 4.15625 19.0885 4.47917 19.1094 4.84375C19.1094 4.98958 19.125 5.13542 19.1562 5.28125C19.1875 5.41667 19.2031 5.55729 19.2031 5.70312C19.2031 6.03646 19.151 6.35938 19.0469 6.67188C18.9427 6.98438 18.8906 7.30208 18.8906 7.625C18.8906 7.89583 18.9323 8.17708 19.0156 8.46875C19.099 8.76042 19.1406 9.06771 19.1406 9.39062C19.1406 9.77604 19.1146 10.1562 19.0625 10.5312C19.0104 10.8958 18.9844 11.2708 18.9844 11.6562C18.9844 11.7708 19.0052 11.8802 19.0469 11.9844C19.0885 12.0781 19.1094 12.1719 19.1094 12.2656C19.1094 12.3802 19.0885 12.4896 19.0469 12.5938C19.0052 12.6875 18.9844 12.7917 18.9844 12.9062C18.9844 13.1458 19.0156 13.3854 19.0781 13.625C19.1406 13.8646 19.1823 14.1042 19.2031 14.3438C19.224 14.5833 19.2292 14.8229 19.2188 15.0625C19.2083 15.3021 19.2031 15.5417 19.2031 15.7812C19.2031 16.1979 19.2344 16.6094 19.2969 17.0156C19.3698 17.4219 19.4062 17.8438 19.4062 18.2812C19.4062 19.0938 19.4115 19.9115 19.4219 20.7344C19.4323 21.5469 19.4375 22.3594 19.4375 23.1719Z" fill="#19A83E"/>
<path d="M37.9531 24.5156C37.9531 24.849 37.9115 25.1771 37.8281 25.5C37.7448 25.8229 37.6458 26.1354 37.5312 26.4375C37.2917 26.5729 37.0365 26.6719 36.7656 26.7344C36.5052 26.7969 36.2396 26.8281 35.9688 26.8281C35.6667 26.8281 35.3698 26.7708 35.0781 26.6562C34.7552 26.1875 34.5365 25.7135 34.4219 25.2344C34.3177 24.7552 34.2656 24.2396 34.2656 23.6875C34.2656 23.2917 34.2812 22.8906 34.3125 22.4844C34.3542 22.0677 34.3646 21.6562 34.3438 21.25V20.7812C34.25 20.7708 34.1771 20.7865 34.125 20.8281C34.0833 20.8698 34.0469 20.9219 34.0156 20.9844C33.9948 21.0469 33.9792 21.1146 33.9688 21.1875C33.9583 21.2604 33.9427 21.3281 33.9219 21.3906C33.8281 21.6094 33.724 21.8333 33.6094 22.0625C33.5052 22.2812 33.4062 22.5052 33.3125 22.7344C33.2604 22.849 33.224 22.974 33.2031 23.1094C33.1927 23.2344 33.1562 23.3542 33.0938 23.4688C33.0417 23.5521 32.9635 23.6354 32.8594 23.7188C32.7552 23.8021 32.6615 23.8854 32.5781 23.9688C32.4531 24.1042 32.3385 24.2552 32.2344 24.4219C32.1406 24.5781 32.0521 24.7396 31.9688 24.9062C31.8438 25.125 31.7188 25.3021 31.5938 25.4375C31.4688 25.5833 31.3333 25.7031 31.1875 25.7969C31.0417 25.901 30.8802 25.9948 30.7031 26.0781C30.5365 26.1615 30.3385 26.25 30.1094 26.3438C30.0156 26.375 29.9271 26.4271 29.8438 26.5C29.7604 26.5729 29.6771 26.625 29.5938 26.6562C29.3438 26.7292 29.0521 26.7708 28.7188 26.7812C28.3958 26.7917 28.1042 26.7969 27.8438 26.7969C27.7083 26.7969 27.5312 26.7812 27.3125 26.75C27.0938 26.7292 26.8646 26.6979 26.625 26.6562C26.3958 26.6146 26.1771 26.5625 25.9688 26.5C25.7604 26.4479 25.5938 26.3958 25.4688 26.3438C25.3438 26.2917 25.2135 26.2135 25.0781 26.1094C24.9427 26.0052 24.8073 25.8906 24.6719 25.7656C24.5365 25.651 24.4062 25.5312 24.2812 25.4062C24.1562 25.2917 24.0312 25.1875 23.9062 25.0938C23.8542 24.9479 23.8229 24.7969 23.8125 24.6406C23.8021 24.4844 23.7708 24.3281 23.7188 24.1719C23.6667 24.0365 23.5938 23.9167 23.5 23.8125C23.4167 23.7083 23.349 23.5938 23.2969 23.4688C23.2344 23.2396 23.2031 23.0104 23.2031 22.7812C23.2031 22.5521 23.1615 22.3333 23.0781 22.125C23.0365 22 22.9792 21.875 22.9062 21.75C22.8438 21.625 22.776 21.5052 22.7031 21.3906C22.6406 21.2656 22.5833 21.1406 22.5312 21.0156C22.4896 20.8906 22.4688 20.7656 22.4688 20.6406C22.4688 20.401 22.5208 20.1719 22.625 19.9531C22.7292 19.7344 22.7812 19.5052 22.7812 19.2656C22.7812 19.0573 22.7448 18.8646 22.6719 18.6875C22.599 18.5 22.5625 18.3021 22.5625 18.0938C22.5625 17.8021 22.6042 17.526 22.6875 17.2656C22.7812 16.9948 22.8438 16.7135 22.875 16.4219C22.8438 16.401 22.8177 16.375 22.7969 16.3438C22.7865 16.3021 22.7812 16.2656 22.7812 16.2344C22.7812 15.974 22.8281 15.7135 22.9219 15.4531C23.026 15.1927 23.0781 14.9271 23.0781 14.6562C23.0781 14.4688 23.0417 14.3021 22.9688 14.1562C23.0104 14.0208 23.0833 13.901 23.1875 13.7969C23.2917 13.6927 23.3594 13.5781 23.3906 13.4531C23.4531 13.224 23.4688 13 23.4375 12.7812C23.4167 12.5521 23.4323 12.3281 23.4844 12.1094C23.5365 11.9635 23.6094 11.8281 23.7031 11.7031C23.8073 11.5781 23.875 11.4323 23.9062 11.2656C23.9688 11.026 23.9896 10.7865 23.9688 10.5469C23.9583 10.3073 23.9375 10.0677 23.9062 9.82812C24.1354 9.61979 24.2917 9.41146 24.375 9.20312C24.4583 8.98438 24.5365 8.77604 24.6094 8.57812C24.6927 8.36979 24.8125 8.17188 24.9688 7.98438C25.125 7.79688 25.3906 7.625 25.7656 7.46875C25.8281 7.4375 25.8802 7.39062 25.9219 7.32812C25.9635 7.26562 26.026 7.23438 26.1094 7.23438C26.3177 7.23438 26.5469 7.27083 26.7969 7.34375C27.0573 7.40625 27.3021 7.50521 27.5312 7.64062C27.7604 7.76562 27.9479 7.92188 28.0938 8.10938C28.25 8.29688 28.3281 8.51042 28.3281 8.75C28.3281 9.125 28.3177 9.42708 28.2969 9.65625C28.276 9.88542 28.2448 10.0729 28.2031 10.2188C28.1615 10.3646 28.1094 10.4844 28.0469 10.5781C27.9844 10.6719 27.9167 10.7708 27.8438 10.875C27.7708 10.9688 27.6875 11.0885 27.5938 11.2344C27.5104 11.3698 27.4219 11.5521 27.3281 11.7812C27.1302 12.2708 26.9896 12.7865 26.9062 13.3281C26.8229 13.8698 26.7188 14.3906 26.5938 14.8906C26.5625 15.0365 26.5104 15.1771 26.4375 15.3125C26.3646 15.4375 26.3073 15.5729 26.2656 15.7188L25.9844 17.8906C25.9844 18.224 26 18.5833 26.0312 18.9688C26.0729 19.3542 26.1198 19.7135 26.1719 20.0469C26.1927 20.1094 26.2135 20.1562 26.2344 20.1875C26.2552 20.2188 26.2656 20.276 26.2656 20.3594C26.2656 20.3906 26.25 20.4167 26.2188 20.4375C26.1875 20.4583 26.1719 20.4948 26.1719 20.5469C26.1719 20.599 26.1823 20.6771 26.2031 20.7812C26.2344 20.8854 26.2708 20.9948 26.3125 21.1094C26.3542 21.224 26.3906 21.3385 26.4219 21.4531C26.4531 21.5573 26.4792 21.6406 26.5 21.7031C26.5417 21.9115 26.5729 22.099 26.5938 22.2656C26.625 22.4219 26.6667 22.5625 26.7188 22.6875C26.7708 22.8125 26.8542 22.9323 26.9688 23.0469C27.0938 23.151 27.276 23.25 27.5156 23.3438C27.651 23.4062 27.7865 23.474 27.9219 23.5469C28.0677 23.6198 28.2135 23.6562 28.3594 23.6562C28.5781 23.6562 28.8021 23.5417 29.0312 23.3125C29.2604 23.0833 29.4792 22.8177 29.6875 22.5156C29.9062 22.2135 30.1042 21.9062 30.2812 21.5938C30.4583 21.2812 30.6042 21.0417 30.7188 20.875C30.7292 20.8021 30.7604 20.7448 30.8125 20.7031C30.8646 20.6615 30.9167 20.625 30.9688 20.5938C31.0208 20.5521 31.0625 20.5104 31.0938 20.4688C31.1354 20.4167 31.151 20.349 31.1406 20.2656C31.2344 20.0365 31.3542 19.8281 31.5 19.6406C31.6562 19.4531 31.7812 19.2448 31.875 19.0156C31.9479 18.8281 32.0052 18.6458 32.0469 18.4688C32.0885 18.2917 32.1354 18.1198 32.1875 17.9531C32.2396 17.7865 32.3021 17.625 32.375 17.4688C32.4479 17.3021 32.5469 17.1354 32.6719 16.9688C32.7552 16.8542 32.7865 16.7396 32.7656 16.625C32.7448 16.5 32.7344 16.3906 32.7344 16.2969C32.7344 16.2135 32.7552 16.1302 32.7969 16.0469L33 15.9062C33.0729 15.7396 33.1354 15.5312 33.1875 15.2812C33.25 15.0312 33.3021 14.7708 33.3438 14.5C33.3854 14.2292 33.4167 13.9635 33.4375 13.7031C33.4583 13.4427 33.4792 13.2188 33.5 13.0312C33.5208 12.9688 33.5469 12.9167 33.5781 12.875C33.6094 12.8333 33.6146 12.7812 33.5938 12.7188C33.5312 12.6875 33.5 12.6198 33.5 12.5156C33.5 12.4427 33.5312 12.3438 33.5938 12.2188C33.6667 12.0938 33.7396 11.9479 33.8125 11.7812C33.8958 11.6146 33.9688 11.4375 34.0312 11.25C34.1042 11.0521 34.1406 10.8438 34.1406 10.625C34.1406 10.4375 34.1302 10.25 34.1094 10.0625C34.0885 9.86458 34.0781 9.67188 34.0781 9.48438C34.0781 9.39062 34.0938 9.27083 34.125 9.125C34.1562 8.96875 34.1927 8.8125 34.2344 8.65625C34.2865 8.48958 34.3385 8.33333 34.3906 8.1875C34.4427 8.04167 34.4896 7.9375 34.5312 7.875C34.6875 7.8125 34.7969 7.75521 34.8594 7.70312C34.9219 7.65104 34.9688 7.60417 35 7.5625C35.0312 7.52083 35.0521 7.48438 35.0625 7.45312C35.0833 7.42188 35.1198 7.39583 35.1719 7.375C35.4427 7.40625 35.7396 7.43229 36.0625 7.45312C36.3854 7.46354 36.6719 7.53125 36.9219 7.65625C37.026 8.01042 37.151 8.35417 37.2969 8.6875C37.4531 9.02083 37.5312 9.38021 37.5312 9.76562C37.5312 9.97396 37.5156 10.1875 37.4844 10.4062C37.4531 10.625 37.4375 10.849 37.4375 11.0781C37.4375 11.2865 37.4531 11.4896 37.4844 11.6875C37.5156 11.8854 37.5312 12.0885 37.5312 12.2969C37.5312 12.5365 37.5156 12.7708 37.4844 13C37.4531 13.2188 37.4375 13.4427 37.4375 13.6719C37.4375 13.9323 37.4583 14.1927 37.5 14.4531C37.5417 14.7031 37.5625 14.9531 37.5625 15.2031C37.5625 15.3177 37.5521 15.4375 37.5312 15.5625C37.5208 15.6771 37.4896 15.7917 37.4375 15.9062C37.5625 16.3125 37.6458 16.776 37.6875 17.2969C37.7292 17.8073 37.7552 18.3385 37.7656 18.8906C37.776 19.4323 37.7708 19.9688 37.75 20.5C37.7396 21.0312 37.7344 21.5156 37.7344 21.9531C37.7344 22.099 37.7552 22.25 37.7969 22.4062C37.8385 22.5521 37.8594 22.6927 37.8594 22.8281C37.8281 22.8906 37.7969 22.9583 37.7656 23.0312C37.7448 23.1042 37.7344 23.1719 37.7344 23.2344C37.7344 23.4427 37.7708 23.6562 37.8438 23.875C37.9167 24.0833 37.9531 24.2969 37.9531 24.5156Z" fill="#19A83E"/>
<path d="M54.0625 11.0781C54.0625 11.276 54.026 11.4688 53.9531 11.6562C53.8906 11.8438 53.8594 12.0365 53.8594 12.2344C53.8385 12.3906 53.8333 12.5521 53.8438 12.7188C53.8542 12.875 53.8594 13.0312 53.8594 13.1875C53.8594 13.3125 53.8385 13.4531 53.7969 13.6094C53.7552 13.7656 53.7083 13.9219 53.6562 14.0781C53.6146 14.224 53.5781 14.3646 53.5469 14.5C53.526 14.625 53.526 14.7344 53.5469 14.8281C53.401 14.9427 53.2865 15.0573 53.2031 15.1719C53.1302 15.276 53.1042 15.4271 53.125 15.625C53 15.6771 52.901 15.7344 52.8281 15.7969C52.7656 15.849 52.6615 15.8646 52.5156 15.8438C52.4323 16.0312 52.3281 16.1979 52.2031 16.3438C52.0781 16.4896 51.9375 16.625 51.7812 16.75C51.6354 16.875 51.4792 17 51.3125 17.125C51.1562 17.2396 51.0052 17.3594 50.8594 17.4844C50.6302 17.4323 50.4062 17.4062 50.1875 17.4062C49.9688 17.4062 49.7448 17.3646 49.5156 17.2812C49.276 16.9583 49.099 16.5833 48.9844 16.1562C48.8802 15.7188 48.7812 15.3073 48.6875 14.9219C48.7188 14.8385 48.8021 14.7083 48.9375 14.5312C49.0729 14.3438 49.224 14.151 49.3906 13.9531C49.5677 13.7552 49.7344 13.5781 49.8906 13.4219C50.0469 13.2656 50.1667 13.1771 50.25 13.1562C50.3021 12.9167 50.3698 12.6823 50.4531 12.4531C50.5365 12.224 50.5781 11.9792 50.5781 11.7188C50.5781 11.4167 50.4688 11.1719 50.25 10.9844C50.0104 11.0365 49.8229 11.1458 49.6875 11.3125C49.5521 11.4688 49.3958 11.6042 49.2188 11.7188C49.0417 11.7188 48.8854 11.7396 48.75 11.7812C48.6146 11.8229 48.4635 11.8333 48.2969 11.8125C48.1927 11.8333 48.1146 11.8802 48.0625 11.9531C48.0104 12.0156 47.9583 12.0833 47.9062 12.1562C47.8542 12.2292 47.7865 12.3021 47.7031 12.375C47.6198 12.4479 47.5 12.5052 47.3438 12.5469C47.3333 12.5677 47.3125 12.6042 47.2812 12.6562C47.2604 12.7083 47.2292 12.7656 47.1875 12.8281C47.1562 12.8906 47.125 12.9531 47.0938 13.0156C47.0729 13.0781 47.0573 13.125 47.0469 13.1562H46.8281C46.7448 13.2708 46.6771 13.3906 46.625 13.5156C46.5833 13.6406 46.5104 13.7656 46.4062 13.8906C46.3125 14.026 46.2031 14.1771 46.0781 14.3438C45.9531 14.5 45.8281 14.6667 45.7031 14.8438C45.5885 15.0208 45.4896 15.2031 45.4062 15.3906C45.3333 15.5677 45.2969 15.75 45.2969 15.9375C45.2969 16.0521 45.3125 16.1615 45.3438 16.2656C45.375 16.3594 45.3906 16.4531 45.3906 16.5469C45.3906 16.776 45.3542 17.0052 45.2812 17.2344C45.2188 17.4531 45.1875 17.6719 45.1875 17.8906C45.1875 18.0365 45.2031 18.1823 45.2344 18.3281C45.276 18.474 45.2969 18.6198 45.2969 18.7656C45.2969 18.9844 45.2552 19.1979 45.1719 19.4062C45.099 19.6146 45.0625 19.8385 45.0625 20.0781C45.0625 20.349 45.0781 20.6198 45.1094 20.8906C45.151 21.151 45.1927 21.4167 45.2344 21.6875C45.2865 21.9583 45.3281 22.2344 45.3594 22.5156C45.401 22.7865 45.4219 23.0625 45.4219 23.3438C45.4219 23.6979 45.3646 24.0156 45.25 24.2969C45.1458 24.5781 45.0521 24.8854 44.9688 25.2188C44.7604 25.3646 44.5104 25.5104 44.2188 25.6562C43.9375 25.8125 43.6667 25.8906 43.4062 25.8906C43.1979 25.8906 43.0365 25.8281 42.9219 25.7031C42.8073 25.5781 42.7344 25.4167 42.7031 25.2188C42.4427 25.125 42.2083 24.9896 42 24.8125C41.9896 24.6771 41.9479 24.5521 41.875 24.4375C41.8125 24.3229 41.7396 24.2083 41.6562 24.0938C41.5833 23.9792 41.5156 23.8594 41.4531 23.7344C41.3906 23.599 41.3594 23.4427 41.3594 23.2656C41.3594 23.0781 41.3854 22.8906 41.4375 22.7031C41.4896 22.5052 41.5156 22.3021 41.5156 22.0938C41.5156 22.0208 41.5104 21.9583 41.5 21.9062C41.4896 21.8438 41.4844 21.7865 41.4844 21.7344C41.4844 21.6615 41.5 21.599 41.5312 21.5469C41.5625 21.4948 41.5938 21.4479 41.625 21.4062C41.6562 21.3542 41.6875 21.3021 41.7188 21.25C41.75 21.1979 41.7656 21.125 41.7656 21.0312C41.7656 20.9688 41.75 20.9167 41.7188 20.875C41.6875 20.8229 41.651 20.776 41.6094 20.7344C41.5677 20.6823 41.5312 20.6302 41.5 20.5781C41.4688 20.5156 41.4531 20.4427 41.4531 20.3594C41.4531 19.9427 41.4792 19.5365 41.5312 19.1406C41.5833 18.7344 41.6094 18.3177 41.6094 17.8906C41.6094 17.6406 41.5885 17.3906 41.5469 17.1406C41.5156 16.8906 41.4219 16.6615 41.2656 16.4531C41.3281 16.3698 41.3698 16.2812 41.3906 16.1875C41.4115 16.0833 41.4219 15.9792 41.4219 15.875C41.4219 15.625 41.3958 15.375 41.3438 15.125C41.2917 14.8646 41.2656 14.6042 41.2656 14.3438C41.2656 14.1042 41.3021 13.8802 41.375 13.6719C41.4479 13.4635 41.4844 13.1771 41.4844 12.8125C41.4844 12.7083 41.5 12.6094 41.5312 12.5156C41.5625 12.4219 41.5781 12.3281 41.5781 12.2344C41.5781 12.1927 41.5573 12.1094 41.5156 11.9844C41.474 11.8594 41.4219 11.7083 41.3594 11.5312C41.3073 11.3542 41.2604 11.1615 41.2188 10.9531C41.1771 10.7344 41.1562 10.5104 41.1562 10.2812C41.1562 10.0521 41.1875 9.8125 41.25 9.5625C41.3229 9.30208 41.3594 8.98438 41.3594 8.60938C41.3594 8.34896 41.4323 8.125 41.5781 7.9375C41.7344 7.75 41.9271 7.59896 42.1562 7.48438C42.3854 7.36979 42.625 7.28646 42.875 7.23438C43.1354 7.17188 43.375 7.14062 43.5938 7.14062C43.8854 7.14062 44.1562 7.20312 44.4062 7.32812C44.6562 7.44271 44.8438 7.63542 44.9688 7.90625C44.9479 8.22917 44.9219 8.55729 44.8906 8.89062C44.8594 9.21354 44.8542 9.53646 44.875 9.85938V10.375C45.0312 10.375 45.1562 10.3385 45.25 10.2656C45.3542 10.1823 45.4427 10.0938 45.5156 10C45.599 9.89583 45.6823 9.80208 45.7656 9.71875C45.8594 9.625 45.9792 9.56771 46.125 9.54688C46.1875 9.36979 46.276 9.20833 46.3906 9.0625C46.5052 8.90625 46.6198 8.75521 46.7344 8.60938C47.026 8.48438 47.2969 8.33333 47.5469 8.15625C47.7969 7.96875 48.0469 7.79167 48.2969 7.625C48.5469 7.44792 48.8073 7.29688 49.0781 7.17188C49.3594 7.04688 49.6771 6.98438 50.0312 6.98438C50.3229 6.98438 50.5833 7.05208 50.8125 7.1875C51.0521 7.32292 51.2708 7.48958 51.4688 7.6875H51.625C51.9271 7.6875 52.2135 7.76042 52.4844 7.90625C52.7552 8.04167 53 8.21354 53.2188 8.42188C53.4167 8.59896 53.5625 8.75521 53.6562 8.89062C53.75 9.01562 53.8125 9.14583 53.8438 9.28125C53.8854 9.41667 53.9062 9.57292 53.9062 9.75C53.9167 9.91667 53.9375 10.125 53.9688 10.375C53.9896 10.5 54.0104 10.6198 54.0312 10.7344C54.0521 10.849 54.0625 10.9635 54.0625 11.0781Z" fill="#19A83E"/>
<path d="M68.8438 11.0781C68.8438 11.276 68.8073 11.4688 68.7344 11.6562C68.6719 11.8438 68.6406 12.0365 68.6406 12.2344C68.6198 12.3906 68.6146 12.5521 68.625 12.7188C68.6354 12.875 68.6406 13.0312 68.6406 13.1875C68.6406 13.3125 68.6198 13.4531 68.5781 13.6094C68.5365 13.7656 68.4896 13.9219 68.4375 14.0781C68.3958 14.224 68.3594 14.3646 68.3281 14.5C68.3073 14.625 68.3073 14.7344 68.3281 14.8281C68.1823 14.9427 68.0677 15.0573 67.9844 15.1719C67.9115 15.276 67.8854 15.4271 67.9062 15.625C67.7812 15.6771 67.6823 15.7344 67.6094 15.7969C67.5469 15.849 67.4427 15.8646 67.2969 15.8438C67.2135 16.0312 67.1094 16.1979 66.9844 16.3438C66.8594 16.4896 66.7188 16.625 66.5625 16.75C66.4167 16.875 66.2604 17 66.0938 17.125C65.9375 17.2396 65.7865 17.3594 65.6406 17.4844C65.4115 17.4323 65.1875 17.4062 64.9688 17.4062C64.75 17.4062 64.526 17.3646 64.2969 17.2812C64.0573 16.9583 63.8802 16.5833 63.7656 16.1562C63.6615 15.7188 63.5625 15.3073 63.4688 14.9219C63.5 14.8385 63.5833 14.7083 63.7188 14.5312C63.8542 14.3438 64.0052 14.151 64.1719 13.9531C64.349 13.7552 64.5156 13.5781 64.6719 13.4219C64.8281 13.2656 64.9479 13.1771 65.0312 13.1562C65.0833 12.9167 65.151 12.6823 65.2344 12.4531C65.3177 12.224 65.3594 11.9792 65.3594 11.7188C65.3594 11.4167 65.25 11.1719 65.0312 10.9844C64.7917 11.0365 64.6042 11.1458 64.4688 11.3125C64.3333 11.4688 64.1771 11.6042 64 11.7188C63.8229 11.7188 63.6667 11.7396 63.5312 11.7812C63.3958 11.8229 63.2448 11.8333 63.0781 11.8125C62.974 11.8333 62.8958 11.8802 62.8438 11.9531C62.7917 12.0156 62.7396 12.0833 62.6875 12.1562C62.6354 12.2292 62.5677 12.3021 62.4844 12.375C62.401 12.4479 62.2812 12.5052 62.125 12.5469C62.1146 12.5677 62.0938 12.6042 62.0625 12.6562C62.0417 12.7083 62.0104 12.7656 61.9688 12.8281C61.9375 12.8906 61.9062 12.9531 61.875 13.0156C61.8542 13.0781 61.8385 13.125 61.8281 13.1562H61.6094C61.526 13.2708 61.4583 13.3906 61.4062 13.5156C61.3646 13.6406 61.2917 13.7656 61.1875 13.8906C61.0938 14.026 60.9844 14.1771 60.8594 14.3438C60.7344 14.5 60.6094 14.6667 60.4844 14.8438C60.3698 15.0208 60.2708 15.2031 60.1875 15.3906C60.1146 15.5677 60.0781 15.75 60.0781 15.9375C60.0781 16.0521 60.0938 16.1615 60.125 16.2656C60.1562 16.3594 60.1719 16.4531 60.1719 16.5469C60.1719 16.776 60.1354 17.0052 60.0625 17.2344C60 17.4531 59.9688 17.6719 59.9688 17.8906C59.9688 18.0365 59.9844 18.1823 60.0156 18.3281C60.0573 18.474 60.0781 18.6198 60.0781 18.7656C60.0781 18.9844 60.0365 19.1979 59.9531 19.4062C59.8802 19.6146 59.8438 19.8385 59.8438 20.0781C59.8438 20.349 59.8594 20.6198 59.8906 20.8906C59.9323 21.151 59.974 21.4167 60.0156 21.6875C60.0677 21.9583 60.1094 22.2344 60.1406 22.5156C60.1823 22.7865 60.2031 23.0625 60.2031 23.3438C60.2031 23.6979 60.1458 24.0156 60.0312 24.2969C59.9271 24.5781 59.8333 24.8854 59.75 25.2188C59.5417 25.3646 59.2917 25.5104 59 25.6562C58.7188 25.8125 58.4479 25.8906 58.1875 25.8906C57.9792 25.8906 57.8177 25.8281 57.7031 25.7031C57.5885 25.5781 57.5156 25.4167 57.4844 25.2188C57.224 25.125 56.9896 24.9896 56.7812 24.8125C56.7708 24.6771 56.7292 24.5521 56.6562 24.4375C56.5938 24.3229 56.5208 24.2083 56.4375 24.0938C56.3646 23.9792 56.2969 23.8594 56.2344 23.7344C56.1719 23.599 56.1406 23.4427 56.1406 23.2656C56.1406 23.0781 56.1667 22.8906 56.2188 22.7031C56.2708 22.5052 56.2969 22.3021 56.2969 22.0938C56.2969 22.0208 56.2917 21.9583 56.2812 21.9062C56.2708 21.8438 56.2656 21.7865 56.2656 21.7344C56.2656 21.6615 56.2812 21.599 56.3125 21.5469C56.3438 21.4948 56.375 21.4479 56.4062 21.4062C56.4375 21.3542 56.4688 21.3021 56.5 21.25C56.5312 21.1979 56.5469 21.125 56.5469 21.0312C56.5469 20.9688 56.5312 20.9167 56.5 20.875C56.4688 20.8229 56.4323 20.776 56.3906 20.7344C56.349 20.6823 56.3125 20.6302 56.2812 20.5781C56.25 20.5156 56.2344 20.4427 56.2344 20.3594C56.2344 19.9427 56.2604 19.5365 56.3125 19.1406C56.3646 18.7344 56.3906 18.3177 56.3906 17.8906C56.3906 17.6406 56.3698 17.3906 56.3281 17.1406C56.2969 16.8906 56.2031 16.6615 56.0469 16.4531C56.1094 16.3698 56.151 16.2812 56.1719 16.1875C56.1927 16.0833 56.2031 15.9792 56.2031 15.875C56.2031 15.625 56.1771 15.375 56.125 15.125C56.0729 14.8646 56.0469 14.6042 56.0469 14.3438C56.0469 14.1042 56.0833 13.8802 56.1562 13.6719C56.2292 13.4635 56.2656 13.1771 56.2656 12.8125C56.2656 12.7083 56.2812 12.6094 56.3125 12.5156C56.3438 12.4219 56.3594 12.3281 56.3594 12.2344C56.3594 12.1927 56.3385 12.1094 56.2969 11.9844C56.2552 11.8594 56.2031 11.7083 56.1406 11.5312C56.0885 11.3542 56.0417 11.1615 56 10.9531C55.9583 10.7344 55.9375 10.5104 55.9375 10.2812C55.9375 10.0521 55.9688 9.8125 56.0312 9.5625C56.1042 9.30208 56.1406 8.98438 56.1406 8.60938C56.1406 8.34896 56.2135 8.125 56.3594 7.9375C56.5156 7.75 56.7083 7.59896 56.9375 7.48438C57.1667 7.36979 57.4062 7.28646 57.6562 7.23438C57.9167 7.17188 58.1562 7.14062 58.375 7.14062C58.6667 7.14062 58.9375 7.20312 59.1875 7.32812C59.4375 7.44271 59.625 7.63542 59.75 7.90625C59.7292 8.22917 59.7031 8.55729 59.6719 8.89062C59.6406 9.21354 59.6354 9.53646 59.6562 9.85938V10.375C59.8125 10.375 59.9375 10.3385 60.0312 10.2656C60.1354 10.1823 60.224 10.0938 60.2969 10C60.3802 9.89583 60.4635 9.80208 60.5469 9.71875C60.6406 9.625 60.7604 9.56771 60.9062 9.54688C60.9688 9.36979 61.0573 9.20833 61.1719 9.0625C61.2865 8.90625 61.401 8.75521 61.5156 8.60938C61.8073 8.48438 62.0781 8.33333 62.3281 8.15625C62.5781 7.96875 62.8281 7.79167 63.0781 7.625C63.3281 7.44792 63.5885 7.29688 63.8594 7.17188C64.1406 7.04688 64.4583 6.98438 64.8125 6.98438C65.1042 6.98438 65.3646 7.05208 65.5938 7.1875C65.8333 7.32292 66.0521 7.48958 66.25 7.6875H66.4062C66.7083 7.6875 66.9948 7.76042 67.2656 7.90625C67.5365 8.04167 67.7812 8.21354 68 8.42188C68.1979 8.59896 68.3438 8.75521 68.4375 8.89062C68.5312 9.01562 68.5938 9.14583 68.625 9.28125C68.6667 9.41667 68.6875 9.57292 68.6875 9.75C68.6979 9.91667 68.7188 10.125 68.75 10.375C68.7708 10.5 68.7917 10.6198 68.8125 10.7344C68.8333 10.849 68.8438 10.9635 68.8438 11.0781Z" fill="#19A83E"/>
<path d="M84.6406 22.7656C84.6094 22.9219 84.5677 23.0573 84.5156 23.1719C84.474 23.276 84.4323 23.3854 84.3906 23.5C84.3594 23.6042 84.3333 23.7188 84.3125 23.8438C84.3021 23.9688 84.3073 24.1198 84.3281 24.2969C84.2344 24.349 84.1667 24.4219 84.125 24.5156C84.0833 24.599 84.0469 24.6927 84.0156 24.7969C83.9948 24.8906 83.9688 24.9896 83.9375 25.0938C83.9167 25.1979 83.875 25.2865 83.8125 25.3594C83.5833 25.2865 83.3542 25.2552 83.125 25.2656C82.8958 25.276 82.6667 25.2812 82.4375 25.2812C82.1979 25.2812 82.0156 25.2604 81.8906 25.2188C81.7656 25.1875 81.6146 25.0938 81.4375 24.9375C81.3125 24.8125 81.1875 24.7604 81.0625 24.7812C80.9479 24.8021 80.8385 24.8073 80.7344 24.7969C80.6406 24.7865 80.5625 24.7188 80.5 24.5938C80.4479 24.4583 80.4219 24.1875 80.4219 23.7812C80.4219 23.7188 80.4167 23.651 80.4062 23.5781C80.3958 23.5052 80.3594 23.4375 80.2969 23.375C80.026 23.4375 79.776 23.5521 79.5469 23.7188C79.3177 23.875 79.099 24.0417 78.8906 24.2188C78.6823 24.3854 78.474 24.5312 78.2656 24.6562C78.0573 24.7812 77.8385 24.8333 77.6094 24.8125C77.4948 24.9271 77.3854 25.0417 77.2812 25.1562C77.1771 25.2708 77.0521 25.3698 76.9062 25.4531C76.8333 25.4844 76.7083 25.5208 76.5312 25.5625C76.3646 25.6042 76.1875 25.6406 76 25.6719C75.8125 25.7031 75.6302 25.7292 75.4531 25.75C75.276 25.7812 75.151 25.7969 75.0781 25.7969C74.8594 25.7969 74.6042 25.724 74.3125 25.5781C74.0208 25.4427 73.7292 25.2969 73.4375 25.1406C73.1562 24.9844 72.8906 24.849 72.6406 24.7344C72.3906 24.6094 72.1875 24.5677 72.0312 24.6094C71.9167 24.5156 71.8333 24.401 71.7812 24.2656C71.7292 24.1198 71.6458 23.9896 71.5312 23.875C71.3958 23.7604 71.25 23.6667 71.0938 23.5938C70.9375 23.5208 70.8021 23.4115 70.6875 23.2656C70.6146 23.1615 70.5573 23.0521 70.5156 22.9375C70.4844 22.8125 70.4479 22.6875 70.4062 22.5625C70.375 22.4271 70.3333 22.2969 70.2812 22.1719C70.2396 22.0469 70.1719 21.9323 70.0781 21.8281C70.1198 21.651 70.1458 21.4323 70.1562 21.1719C70.1667 20.9115 70.1823 20.651 70.2031 20.3906C70.2344 20.1198 70.2812 19.8698 70.3438 19.6406C70.4167 19.4115 70.5312 19.2448 70.6875 19.1406V19.0156C70.6875 18.6927 70.7396 18.4323 70.8438 18.2344C70.9479 18.026 71.0781 17.8438 71.2344 17.6875C71.3906 17.5208 71.5625 17.3646 71.75 17.2188C71.9375 17.0729 72.1094 16.8958 72.2656 16.6875C72.3594 16.6146 72.4583 16.5885 72.5625 16.6094C72.6667 16.6198 72.7708 16.599 72.875 16.5469L72.9688 16.3594C73.0208 16.3385 73.0677 16.3333 73.1094 16.3438C73.151 16.3542 73.1875 16.3594 73.2188 16.3594C73.2708 16.3594 73.3229 16.3385 73.375 16.2969C73.4271 16.2552 73.4792 16.2135 73.5312 16.1719C73.5833 16.1198 73.6354 16.0729 73.6875 16.0312C73.75 15.9896 73.8177 15.9688 73.8906 15.9688C73.9219 15.9688 73.9583 15.9792 74 16C74.0417 16.0104 74.0781 16.026 74.1094 16.0469C74.1823 15.9323 74.2656 15.8333 74.3594 15.75C74.4635 15.6562 74.5677 15.5677 74.6719 15.4844C74.776 15.401 74.875 15.3177 74.9688 15.2344C75.0729 15.1406 75.1615 15.0365 75.2344 14.9219C75.276 14.9427 75.3385 14.9531 75.4219 14.9531C75.5156 14.9531 75.5885 14.9323 75.6406 14.8906C75.6927 14.8385 75.7448 14.7865 75.7969 14.7344C75.8594 14.6719 75.9271 14.6198 76 14.5781C76.0729 14.526 76.1823 14.5 76.3281 14.5C76.3594 14.5 76.4219 14.4792 76.5156 14.4375C76.6094 14.3958 76.7083 14.349 76.8125 14.2969C76.9167 14.2344 77.0156 14.1771 77.1094 14.125C77.2031 14.0625 77.2708 14.0156 77.3125 13.9844L77.4844 13.9531C77.5781 13.9531 77.6667 13.974 77.75 14.0156C77.8333 14.0469 77.9219 14.0729 78.0156 14.0938C78.151 13.9583 78.2865 13.8281 78.4219 13.7031C78.5573 13.5781 78.6667 13.4271 78.75 13.25C78.8854 13.2083 79.0417 13.1302 79.2188 13.0156C79.3958 12.901 79.5625 12.7708 79.7188 12.625C79.8854 12.4792 80.0208 12.3229 80.125 12.1562C80.2396 11.9792 80.2969 11.8125 80.2969 11.6562C80.2969 11.4896 80.25 11.3281 80.1562 11.1719C80.0729 11.0156 79.974 10.8646 79.8594 10.7188C79.7448 10.5625 79.6302 10.4062 79.5156 10.25C79.401 10.0938 79.3177 9.93229 79.2656 9.76562H79.2031C79.0781 9.76562 78.9635 9.70833 78.8594 9.59375C78.7656 9.46875 78.6562 9.39062 78.5312 9.35938C78.4271 9.31771 78.3177 9.29688 78.2031 9.29688C78.0885 9.29688 77.974 9.29688 77.8594 9.29688C77.7448 9.29688 77.6302 9.28646 77.5156 9.26562C77.4115 9.24479 77.3125 9.19792 77.2188 9.125C77.0104 9.16667 76.8438 9.24479 76.7188 9.35938C76.5938 9.46354 76.4688 9.57292 76.3438 9.6875C76.2188 9.80208 76.0729 9.90104 75.9062 9.98438C75.7396 10.0573 75.5156 10.0833 75.2344 10.0625C75.0469 10.4479 74.875 10.849 74.7188 11.2656C74.5729 11.6823 74.3698 12.0677 74.1094 12.4219C74.0469 12.651 73.9844 12.8802 73.9219 13.1094C73.8698 13.3281 73.7656 13.5156 73.6094 13.6719C73.401 13.7344 73.1875 13.7656 72.9688 13.7656C72.7396 13.7656 72.4844 13.724 72.2031 13.6406C71.9323 13.5469 71.6771 13.4219 71.4375 13.2656C71.1979 13.1094 70.9948 12.9271 70.8281 12.7188C70.6719 12.5 70.5938 12.2656 70.5938 12.0156C70.5938 11.7448 70.6458 11.4792 70.75 11.2188C70.8646 10.9479 70.9219 10.6667 70.9219 10.375C71.0677 10.3229 71.1823 10.2396 71.2656 10.125C71.349 10.0104 71.4219 9.89062 71.4844 9.76562C71.5573 9.63021 71.6302 9.50521 71.7031 9.39062C71.7865 9.27604 71.8958 9.1875 72.0312 9.125V9C72.0312 8.90625 72.0573 8.83854 72.1094 8.79688C72.1615 8.74479 72.1719 8.65104 72.1406 8.51562C72.6198 8.23438 73 7.85417 73.2812 7.375C73.4583 7.29167 73.6458 7.22396 73.8438 7.17188C74.0417 7.11979 74.2292 7.04688 74.4062 6.95312C74.5625 6.89062 74.7083 6.80208 74.8438 6.6875C74.9896 6.57292 75.151 6.48958 75.3281 6.4375C75.5885 6.38542 75.8438 6.38021 76.0938 6.42188C76.3542 6.45312 76.6042 6.46875 76.8438 6.46875C77.0521 6.46875 77.2292 6.42708 77.375 6.34375C77.5312 6.26042 77.7135 6.21875 77.9219 6.21875C78.1302 6.21875 78.3385 6.23438 78.5469 6.26562C78.7552 6.28646 78.9635 6.3125 79.1719 6.34375C79.2656 6.36458 79.349 6.40104 79.4219 6.45312C79.5052 6.49479 79.5938 6.53125 79.6875 6.5625C80.0104 6.625 80.2448 6.66146 80.3906 6.67188C80.5365 6.67188 80.6615 6.69271 80.7656 6.73438C80.8698 6.77604 80.9792 6.85938 81.0938 6.98438C81.2083 7.09896 81.3906 7.30208 81.6406 7.59375H81.7031C81.8385 7.59375 81.9792 7.64583 82.125 7.75C82.2708 7.84375 82.4062 7.96354 82.5312 8.10938C82.6667 8.24479 82.7812 8.39062 82.875 8.54688C82.9688 8.69271 83.0365 8.82292 83.0781 8.9375C83.1406 9.09375 83.1771 9.26562 83.1875 9.45312C83.1979 9.63021 83.2344 9.79688 83.2969 9.95312C83.3594 10.099 83.4375 10.2344 83.5312 10.3594C83.625 10.4844 83.7135 10.6094 83.7969 10.7344C83.8906 10.8594 83.9688 10.9896 84.0312 11.125C84.1042 11.2604 84.1406 11.4062 84.1406 11.5625C84.1406 11.7708 84.1146 11.974 84.0625 12.1719C84.0208 12.3594 84 12.5521 84 12.75C84 12.9271 84.0365 13.099 84.1094 13.2656C84.1927 13.4219 84.2344 13.5885 84.2344 13.7656C84.2344 13.9948 84.1927 14.2135 84.1094 14.4219C84.0365 14.6302 84 14.849 84 15.0781C84 15.3802 84.0365 15.6823 84.1094 15.9844C84.1927 16.2865 84.2969 16.5833 84.4219 16.875C84.3594 17.0625 84.3281 17.2656 84.3281 17.4844C84.3281 17.7865 84.3594 18.0833 84.4219 18.375C84.4844 18.6562 84.5156 18.9427 84.5156 19.2344C84.5156 19.3802 84.5 19.5156 84.4688 19.6406C84.4375 19.7656 84.401 19.8906 84.3594 20.0156C84.3177 20.1406 84.2812 20.2656 84.25 20.3906C84.2188 20.5156 84.2031 20.6562 84.2031 20.8125C84.2031 21.1458 84.2448 21.474 84.3281 21.7969C84.4115 22.1198 84.5156 22.4427 84.6406 22.7656ZM80.9375 17.6719C80.9375 17.474 80.9219 17.2865 80.8906 17.1094C80.8594 16.9323 80.8438 16.7448 80.8438 16.5469C80.8438 16.3281 80.8073 16.1667 80.7344 16.0625C80.6615 15.9583 80.5156 15.9167 80.2969 15.9375H80.0938C79.9479 16.0729 79.8125 16.2188 79.6875 16.375C79.5729 16.5312 79.4323 16.6667 79.2656 16.7812C79.1198 16.875 78.9583 16.9427 78.7812 16.9844C78.6042 17.026 78.4583 17.125 78.3438 17.2812H78.2812C78.1354 17.2812 78.0104 17.3073 77.9062 17.3594C77.8021 17.401 77.6979 17.4479 77.5938 17.5C77.4896 17.5417 77.375 17.5781 77.25 17.6094C77.1354 17.6406 76.9896 17.6406 76.8125 17.6094C76.6458 17.8698 76.4844 18.1406 76.3281 18.4219C76.1719 18.6927 75.9479 18.901 75.6562 19.0469L75.3906 19.0156C75.2031 19.0052 75.0104 19.026 74.8125 19.0781C74.625 19.1302 74.4531 19.2083 74.2969 19.3125C74.151 19.4167 74.0312 19.5469 73.9375 19.7031C73.8438 19.8594 73.7969 20.0469 73.7969 20.2656C73.7969 20.5469 73.8385 20.7604 73.9219 20.9062C74.0052 21.0417 74.1094 21.1562 74.2344 21.25C74.3594 21.3333 74.4948 21.4115 74.6406 21.4844C74.7865 21.5573 74.9219 21.6719 75.0469 21.8281C75.1615 21.849 75.2812 21.8542 75.4062 21.8438C75.5312 21.8333 75.6562 21.8281 75.7812 21.8281C75.8646 21.8281 75.9479 21.8333 76.0312 21.8438C76.125 21.8438 76.2031 21.8698 76.2656 21.9219C76.3906 21.8073 76.4948 21.724 76.5781 21.6719C76.6615 21.6094 76.8021 21.5885 77 21.6094C77.2396 21.3073 77.5365 21.0729 77.8906 20.9062C78.2448 20.7396 78.599 20.599 78.9531 20.4844C78.974 20.3698 79.0208 20.2708 79.0938 20.1875C79.1771 20.1042 79.2656 20.0312 79.3594 19.9688C79.4531 19.8958 79.5469 19.8333 79.6406 19.7812C79.7344 19.7188 79.8125 19.6458 79.875 19.5625C79.9375 19.5 80.026 19.3802 80.1406 19.2031C80.2656 19.026 80.3854 18.8385 80.5 18.6406C80.625 18.4323 80.7292 18.2396 80.8125 18.0625C80.8958 17.8854 80.9375 17.7552 80.9375 17.6719Z" fill="#19A83E"/>
<path d="M101.203 19.9375C101.203 20.1042 101.224 20.2604 101.266 20.4062C101.307 20.5521 101.328 20.7083 101.328 20.875C101.328 21 101.297 21.1042 101.234 21.1875C101.182 21.2708 101.141 21.3802 101.109 21.5156C101.047 21.724 100.974 21.9427 100.891 22.1719C100.807 22.3906 100.729 22.6146 100.656 22.8438C100.594 23.0729 100.542 23.3021 100.5 23.5312C100.469 23.7604 100.469 23.9844 100.5 24.2031C100.344 24.3698 100.208 24.5625 100.094 24.7812C99.9896 24.9896 99.8958 25.2083 99.8125 25.4375C99.7292 25.6667 99.651 25.8958 99.5781 26.125C99.5052 26.3646 99.4271 26.5885 99.3438 26.7969C99.0312 26.9635 98.7188 27.0469 98.4062 27.0469C98.2188 27.0469 98.0156 26.9896 97.7969 26.875C97.5885 26.7708 97.3906 26.6354 97.2031 26.4688C97.026 26.3125 96.875 26.1354 96.75 25.9375C96.625 25.7396 96.5625 25.5469 96.5625 25.3594C96.5625 25.099 96.599 24.8438 96.6719 24.5938C96.7448 24.3438 96.7812 24.0729 96.7812 23.7812C96.7812 23.6667 96.8385 23.5521 96.9531 23.4375C97.0677 23.3125 97.1406 23.1927 97.1719 23.0781C97.1823 23.0365 97.2031 22.9271 97.2344 22.75C97.2656 22.5625 97.2917 22.3646 97.3125 22.1562C97.3438 21.9479 97.3646 21.75 97.375 21.5625C97.3958 21.375 97.401 21.2604 97.3906 21.2188C97.5469 21.0625 97.6719 20.8854 97.7656 20.6875C97.8698 20.4896 97.9583 20.2865 98.0312 20.0781C98.1146 19.8594 98.1927 19.6458 98.2656 19.4375C98.3385 19.2188 98.4219 19.0156 98.5156 18.8281C98.4948 18.776 98.4844 18.7188 98.4844 18.6562C98.4844 18.5938 98.4844 18.5312 98.4844 18.4688C98.4844 18.1979 98.526 17.9375 98.6094 17.6875C98.6927 17.4375 98.7344 17.1771 98.7344 16.9062C98.7344 16.7396 98.7188 16.5781 98.6875 16.4219C98.6562 16.2656 98.6406 16.1042 98.6406 15.9375C98.6406 15.7188 98.6719 15.5 98.7344 15.2812C98.7969 15.0521 98.8281 14.8229 98.8281 14.5938C98.8281 14.4062 98.8021 14.1667 98.75 13.875C98.6979 13.5729 98.625 13.2656 98.5312 12.9531C98.4479 12.6406 98.3438 12.349 98.2188 12.0781C98.0938 11.8073 97.9583 11.6146 97.8125 11.5C97.6771 11.0312 97.3542 10.7969 96.8438 10.7969C96.6146 10.7969 96.3698 10.8438 96.1094 10.9375C95.8594 11.0312 95.6146 11.1562 95.375 11.3125C95.1354 11.4583 94.9167 11.6302 94.7188 11.8281C94.5312 12.0156 94.3854 12.2135 94.2812 12.4219C94.2604 12.4844 94.2448 12.5417 94.2344 12.5938C94.2344 12.6458 94.2188 12.6979 94.1875 12.75C94.0938 12.9271 93.9688 13.0833 93.8125 13.2188C93.6667 13.3438 93.5469 13.4948 93.4531 13.6719C93.3594 13.8802 93.3021 14.099 93.2812 14.3281C93.2604 14.5573 93.224 14.7865 93.1719 15.0156C93.0052 15.1615 92.8594 15.3281 92.7344 15.5156C92.6094 15.7031 92.474 15.8802 92.3281 16.0469C92.3281 16.0573 92.3021 16.1458 92.25 16.3125C92.1979 16.4792 92.1302 16.6875 92.0469 16.9375C91.974 17.1875 91.8906 17.4583 91.7969 17.75C91.7135 18.0417 91.6302 18.3177 91.5469 18.5781C91.474 18.8281 91.4115 19.0417 91.3594 19.2188C91.3073 19.3958 91.2812 19.4896 91.2812 19.5C91.2812 19.6771 91.3021 19.8594 91.3438 20.0469C91.3854 20.224 91.4062 20.401 91.4062 20.5781C91.4062 20.776 91.3906 20.974 91.3594 21.1719C91.3281 21.3594 91.3125 21.5469 91.3125 21.7344C91.3125 22.2031 91.3594 22.6667 91.4531 23.125C91.5469 23.5729 91.5938 24.0365 91.5938 24.5156C91.5938 24.8177 91.5521 25.0469 91.4688 25.2031C91.3854 25.3698 91.2865 25.5052 91.1719 25.6094C91.0677 25.7135 90.9635 25.8125 90.8594 25.9062C90.7656 26 90.7031 26.125 90.6719 26.2812L90.5781 26.25C90.4844 26.2396 90.3854 26.25 90.2812 26.2812C90.1771 26.3229 90.0729 26.3646 89.9688 26.4062C89.8646 26.4583 89.7552 26.5 89.6406 26.5312C89.5365 26.5729 89.4219 26.5938 89.2969 26.5938C89.0781 26.5938 88.8802 26.526 88.7031 26.3906C88.526 26.2552 88.3698 26.0833 88.2344 25.875C88.1094 25.6771 88.0104 25.4635 87.9375 25.2344C87.8646 25.0052 87.8281 24.7969 87.8281 24.6094C87.8281 24.0052 87.8594 23.401 87.9219 22.7969C87.9844 22.1927 88.0156 21.5833 88.0156 20.9688C88.0156 20.1875 88.0156 19.4062 88.0156 18.625C88.0156 17.8333 88.0052 17.0469 87.9844 16.2656C87.9844 16.1719 87.9688 16.0833 87.9375 16C87.9062 15.9167 87.8906 15.8333 87.8906 15.75C87.8906 15.6562 87.9062 15.5677 87.9375 15.4844C87.9688 15.401 87.9844 15.3073 87.9844 15.2031C87.9844 15.026 87.9531 14.8438 87.8906 14.6562C87.8281 14.4688 87.7969 14.2812 87.7969 14.0938C87.7969 13.9479 87.8229 13.8073 87.875 13.6719C87.9271 13.5365 87.9635 13.3958 87.9844 13.25C88.0469 12.875 88.0781 12.4948 88.0781 12.1094C88.0781 11.5781 88.0677 11.0521 88.0469 10.5312C88.026 10 88.0156 9.46875 88.0156 8.9375C88.0156 8.8125 88.0104 8.6875 88 8.5625C87.9896 8.4375 87.9531 8.31771 87.8906 8.20312C87.9219 8.05729 87.9635 7.92188 88.0156 7.79688C88.0781 7.67188 88.1094 7.53125 88.1094 7.375C88.1094 7.13542 88.0573 6.90625 87.9531 6.6875C87.849 6.45833 87.7969 6.22396 87.7969 5.98438C87.7969 5.61979 87.8281 5.25521 87.8906 4.89062C87.9531 4.51562 87.9844 4.14583 87.9844 3.78125C87.9844 3.47917 87.9635 3.18229 87.9219 2.89062C87.8802 2.58854 87.8594 2.28646 87.8594 1.98438C87.8594 1.45312 88.0156 1.0625 88.3281 0.8125C88.6406 0.552083 89.0365 0.421875 89.5156 0.421875C89.6823 0.421875 89.8438 0.390625 90 0.328125C90.1667 0.265625 90.3177 0.234375 90.4531 0.234375C90.526 0.234375 90.5885 0.260417 90.6406 0.3125C90.6927 0.354167 90.7344 0.411458 90.7656 0.484375C90.7969 0.557292 90.8281 0.630208 90.8594 0.703125C90.8906 0.776042 90.9323 0.833333 90.9844 0.875L91.1875 0.96875C91.2292 1.04167 91.276 1.22396 91.3281 1.51562C91.3906 1.79688 91.4479 2.10417 91.5 2.4375C91.5625 2.76042 91.6146 3.07292 91.6562 3.375C91.6979 3.66667 91.7188 3.85417 91.7188 3.9375C91.7188 4.09375 91.6979 4.24479 91.6562 4.39062C91.6146 4.52604 91.5677 4.66146 91.5156 4.79688C91.4635 4.93229 91.4167 5.06771 91.375 5.20312C91.3333 5.33854 91.3125 5.48438 91.3125 5.64062C91.3125 6.05729 91.3438 6.47396 91.4062 6.89062C91.4688 7.29688 91.5 7.71354 91.5 8.14062C91.5 8.47396 91.4583 8.8125 91.375 9.15625C91.2917 9.48958 91.25 9.82292 91.25 10.1562C91.25 10.3854 91.3021 10.6302 91.4062 10.8906C91.5521 10.8698 91.6667 10.8177 91.75 10.7344C91.8438 10.651 91.9219 10.5573 91.9844 10.4531C92.0469 10.3385 92.099 10.2188 92.1406 10.0938C92.1927 9.96875 92.2552 9.85938 92.3281 9.76562C92.3802 9.70312 92.4531 9.63021 92.5469 9.54688C92.6406 9.45312 92.7344 9.36458 92.8281 9.28125C92.9323 9.19792 93.026 9.11979 93.1094 9.04688C93.1927 8.96354 93.2448 8.89583 93.2656 8.84375C93.3177 8.73958 93.3594 8.65625 93.3906 8.59375C93.4219 8.53125 93.4844 8.47396 93.5781 8.42188C93.7135 8.32812 93.849 8.25 93.9844 8.1875C94.1302 8.11458 94.2292 7.97917 94.2812 7.78125C94.6458 7.66667 95.0156 7.55208 95.3906 7.4375C95.7656 7.32292 96.1562 7.26562 96.5625 7.26562C96.875 7.26562 97.1875 7.31771 97.5 7.42188C97.8229 7.51562 98.1302 7.61979 98.4219 7.73438C98.7135 7.84896 98.9844 7.95833 99.2344 8.0625C99.4844 8.15625 99.7031 8.20312 99.8906 8.20312C99.974 8.20312 100.068 8.26562 100.172 8.39062C100.276 8.50521 100.385 8.57812 100.5 8.60938C100.583 8.84896 100.63 9.09375 100.641 9.34375C100.651 9.59375 100.698 9.83333 100.781 10.0625C100.875 10.2812 100.995 10.4896 101.141 10.6875C101.297 10.875 101.422 11.0781 101.516 11.2969C101.495 11.4115 101.474 11.5208 101.453 11.625C101.432 11.7188 101.422 11.8229 101.422 11.9375C101.422 12.1667 101.479 12.375 101.594 12.5625C101.708 12.75 101.792 12.9479 101.844 13.1562C101.875 13.3542 101.891 13.5521 101.891 13.75C101.901 13.9375 101.906 14.1354 101.906 14.3438C101.906 14.9271 101.896 15.5417 101.875 16.1875C101.865 16.8333 101.807 17.4479 101.703 18.0312C101.682 18.1771 101.641 18.3281 101.578 18.4844C101.526 18.6406 101.469 18.7969 101.406 18.9531C101.354 19.1094 101.307 19.2708 101.266 19.4375C101.224 19.6042 101.203 19.7708 101.203 19.9375Z" fill="#19A83E"/>
<path d="M109.109 3.34375C108.995 3.48958 108.943 3.65104 108.953 3.82812C108.964 4.00521 108.943 4.18229 108.891 4.35938C108.859 4.52604 108.802 4.68229 108.719 4.82812C108.646 4.97396 108.594 5.125 108.562 5.28125C108.51 5.73958 108.495 6.19271 108.516 6.64062C108.547 7.07812 108.562 7.52083 108.562 7.96875C108.562 8.04167 108.547 8.10938 108.516 8.17188C108.484 8.23438 108.469 8.30729 108.469 8.39062C108.469 8.53646 108.49 8.68229 108.531 8.82812C108.573 8.96354 108.594 9.10417 108.594 9.25C108.594 9.375 108.568 9.5 108.516 9.625C108.474 9.75 108.427 9.88021 108.375 10.0156C108.323 10.1406 108.271 10.276 108.219 10.4219C108.177 10.5677 108.156 10.724 108.156 10.8906C108.156 11.2865 108.208 11.6771 108.312 12.0625C108.417 12.4375 108.469 12.8229 108.469 13.2188C108.469 13.5104 108.432 13.7917 108.359 14.0625C108.286 14.3229 108.26 14.599 108.281 14.8906C108.281 14.974 108.286 15.0573 108.297 15.1406C108.307 15.2135 108.312 15.2917 108.312 15.375C108.312 15.5833 108.266 15.8229 108.172 16.0938C108.089 16.3646 107.984 16.5833 107.859 16.75C107.922 16.9688 107.953 17.1927 107.953 17.4219C107.953 17.599 107.932 17.8542 107.891 18.1875C107.859 18.5104 107.807 18.8438 107.734 19.1875C107.661 19.5208 107.562 19.8281 107.438 20.1094C107.323 20.3906 107.188 20.5677 107.031 20.6406C106.865 20.6302 106.698 20.5938 106.531 20.5312C106.375 20.4583 106.234 20.3646 106.109 20.25C105.984 20.1354 105.88 20.0052 105.797 19.8594C105.724 19.7031 105.688 19.5312 105.688 19.3438C105.688 19.1979 105.703 19.0573 105.734 18.9219C105.766 18.7865 105.781 18.6458 105.781 18.5C105.781 18.0208 105.75 17.5521 105.688 17.0938C105.625 16.6354 105.594 16.1667 105.594 15.6875C105.594 15.4167 105.609 15.1458 105.641 14.875C105.672 14.6042 105.688 14.3333 105.688 14.0625C105.688 13.9167 105.661 13.776 105.609 13.6406C105.557 13.5052 105.521 13.3646 105.5 13.2188C105.521 13.1667 105.542 13.1146 105.562 13.0625C105.583 13.0104 105.594 12.9583 105.594 12.9062V12.8125L105.359 12.5156V12.4531C105.359 12.3073 105.38 12.1667 105.422 12.0312C105.474 11.8854 105.5 11.7396 105.5 11.5938C105.5 11.4792 105.453 11.4062 105.359 11.375C105.411 11.25 105.448 11.0156 105.469 10.6719C105.49 10.3177 105.5 9.94271 105.5 9.54688C105.51 9.14062 105.51 8.75 105.5 8.375C105.5 8 105.5 7.71875 105.5 7.53125C105.5 7.17708 105.458 6.83333 105.375 6.5C105.302 6.15625 105.266 5.81771 105.266 5.48438C105.266 5.19271 105.344 4.92708 105.5 4.6875C105.427 4.51042 105.385 4.33333 105.375 4.15625C105.365 3.97917 105.359 3.80208 105.359 3.625C105.359 3.22917 105.359 2.85938 105.359 2.51562C105.359 2.16146 105.411 1.85417 105.516 1.59375C105.63 1.33333 105.818 1.13021 106.078 0.984375C106.339 0.828125 106.729 0.75 107.25 0.75C107.573 0.75 107.828 0.84375 108.016 1.03125C108.214 1.20833 108.375 1.43229 108.5 1.70312C108.625 1.96354 108.729 2.24479 108.812 2.54688C108.906 2.84896 109.005 3.11458 109.109 3.34375ZM108.594 23.625C108.594 23.7396 108.562 23.8542 108.5 23.9688C108.448 24.0729 108.406 24.1719 108.375 24.2656C108.344 24.3906 108.323 24.5052 108.312 24.6094C108.302 24.7135 108.281 24.8125 108.25 24.9062C108.229 24.9896 108.188 25.0729 108.125 25.1562C108.073 25.2396 107.984 25.3281 107.859 25.4219C107.63 25.5677 107.38 25.6667 107.109 25.7188C106.849 25.7708 106.589 25.7969 106.328 25.7969C106.026 25.7969 105.75 25.7656 105.5 25.7031C105.333 25.526 105.177 25.3594 105.031 25.2031C104.896 25.0469 104.802 24.8385 104.75 24.5781C104.688 24.5156 104.635 24.4479 104.594 24.375C104.552 24.2917 104.531 24.2031 104.531 24.1094C104.531 23.8698 104.594 23.6406 104.719 23.4219C104.854 23.1927 105.021 22.9948 105.219 22.8281C105.417 22.651 105.635 22.5104 105.875 22.4062C106.125 22.3021 106.359 22.25 106.578 22.25C106.766 22.25 106.974 22.2812 107.203 22.3438C107.432 22.3958 107.651 22.4844 107.859 22.6094C108.068 22.724 108.24 22.8698 108.375 23.0469C108.521 23.2135 108.594 23.4062 108.594 23.625Z" fill="#19A83E"/>
</svg>
