<svg width="225" height="214" viewBox="0 0 225 214" fill="none" xmlns="http://www.w3.org/2000/svg">
<rect x="39.1216" y="4" width="182.384" height="172.158" rx="37.2993" transform="rotate(13.1347 39.1216 4)" fill="white" fill-opacity="0.3"/>
<rect x="47.4949" y="0.60054" width="181.384" height="171.158" rx="29.5" transform="rotate(13.1347 47.4949 0.60054)" stroke="#333333"/>
<path d="M133.341 129.418C133.341 129.418 126.747 96.0036 101.935 81.2366H84.1975C59.3855 96.0036 52.7919 129.418 52.7919 129.418C45.5286 168.276 90.6194 163.331 90.6194 163.331H95.5131C95.5131 163.331 140.604 168.276 133.341 129.418Z" fill="#E8C47B"/>
<path d="M133.341 129.418C133.341 129.418 126.747 96.0036 101.935 81.2366H92.079C108.941 96.0722 113.663 120.043 113.663 120.043C120.291 155.535 79.115 151.019 79.115 151.019H74.6506C74.6506 151.019 63.9188 152.187 54.2859 148.615C62.5623 166.404 90.6195 163.331 90.6195 163.331H95.5132C95.5132 163.331 140.604 168.276 133.341 129.418Z" fill="#DAB873"/>
<path d="M66.2022 59.4981C65.275 58.2961 63.8326 55.6861 65.4123 54.4842C67.4557 52.9044 71.4908 54.5872 73.5857 55.171C76.333 55.9265 79.3551 56.6133 82.36 56.3043C85.2962 55.9952 88.6446 54.364 91.2545 53.2994C93.8817 52.2348 96.6634 50.3116 99.8057 51.2732C103.12 52.3034 104.407 55.1882 108.219 55.5487C114.916 56.1841 118.865 50.1743 125.15 50.8096C128.412 51.153 128.035 53.1792 126.215 54.5872L101.935 81.2364H84.1973L66.2022 59.4981Z" fill="#E8C47B"/>
<g style="mix-blend-mode:multiply" opacity="0.6">
<path d="M131.057 156.101C122.901 156.101 116.29 153.559 116.29 150.417C116.29 147.275 122.901 144.734 131.057 144.734C139.213 144.734 145.824 147.275 145.824 150.417C145.824 153.559 139.213 156.101 131.057 156.101Z" fill="#CCCCCC"/>
</g>
<path d="M80.9871 159.569C80.9871 162.712 87.5979 165.253 95.754 165.253C103.91 165.253 110.521 162.712 110.521 159.569V156.891H80.9871V159.569Z" fill="#FF931E"/>
<path d="M94.3462 158.265V165.22C94.8155 165.242 95.2849 165.254 95.7542 165.254V158.265H94.3462Z" fill="#D17918"/>
<path d="M91.4958 158.265V165.014C92.2628 165.105 93.0527 165.168 93.8654 165.202V158.265H91.4958Z" fill="#D17918"/>
<path d="M90.9118 164.945V156.909H80.9871V159.57C80.9871 162.06 85.1424 164.172 90.9118 164.945Z" fill="#D17918"/>
<path d="M101.026 158.265V164.876C101.186 164.853 101.346 164.83 101.507 164.807V158.265H101.026Z" fill="#D17918"/>
<path d="M99.1885 165.099C99.3487 165.088 99.509 165.071 99.6693 165.048V158.265H99.1885V165.099Z" fill="#D17918"/>
<path d="M96.853 158.265V165.237C97.0934 165.225 97.3281 165.22 97.557 165.22V158.265H96.853Z" fill="#D17918"/>
<path d="M95.754 162.575C87.5979 162.575 80.9871 160.033 80.9871 156.891C80.9871 153.749 87.5979 151.208 95.754 151.208C103.91 151.208 110.521 153.749 110.521 156.891C110.521 160.033 103.91 162.575 95.754 162.575Z" fill="#FF931E"/>
<path style="mix-blend-mode:multiply" opacity="0.4" d="M104.082 161.579C103.659 161.59 103.235 161.602 102.812 161.613C94.6553 161.613 88.0445 159.055 88.0445 155.929C88.0445 153.972 90.5858 152.255 94.4836 151.225C86.9284 151.482 80.9873 153.92 80.9873 156.891C80.9873 160.033 87.5981 162.575 95.7543 162.575C98.845 162.575 101.713 162.197 104.082 161.579Z" fill="url(#paint0_linear_1078_1336)"/>
<path fill-rule="evenodd" clip-rule="evenodd" d="M95.7544 162.574C87.7528 162.574 81.245 160.119 81.0046 157.063C81.245 154.006 87.7528 151.568 95.7544 151.568C103.756 151.568 110.281 154.006 110.521 157.063C110.281 160.119 103.756 162.574 95.7544 162.574ZM107.774 157.234C107.774 154.693 102.382 152.615 95.7544 152.615C89.1265 152.615 83.7348 154.693 83.7348 157.234C83.7348 159.793 89.1265 161.87 95.7544 161.87C102.382 161.87 107.774 159.793 107.774 157.234Z" fill="#D17918"/>
<path d="M94.4149 156.101L88.697 157.749V158.883L94.5523 157.08C95.1361 157.543 95.9603 157.904 97.0421 158.127C97.1222 158.15 97.2081 158.167 97.2996 158.179V159.209H99.4288V158.419C99.8753 158.436 100.322 158.436 100.682 158.436V159.209H102.812V156.152H100.682V157.629C100.339 157.629 99.8925 157.629 99.4288 157.612V156.152H97.2996V157.183C96.8017 156.994 96.3553 156.719 96.0805 156.324L94.4149 156.101Z" fill="#D17918"/>
<path fill-rule="evenodd" clip-rule="evenodd" d="M95.754 162.575C87.5979 162.575 80.9871 160.033 80.9871 156.891C80.9871 153.749 87.5979 151.208 95.754 151.208C103.91 151.208 110.521 153.749 110.521 156.891C110.521 160.033 103.91 162.575 95.754 162.575ZM95.754 152.272C89.1261 152.272 83.7344 154.333 83.7344 156.891C83.7344 159.432 89.1261 161.51 95.754 161.51C102.382 161.51 107.774 159.432 107.774 156.891C107.774 154.333 102.382 152.272 95.754 152.272Z" fill="#FFC022"/>
<path fill-rule="evenodd" clip-rule="evenodd" d="M85.3145 156.891C85.3145 154.676 90.0021 152.873 95.7544 152.873C101.507 152.873 106.194 154.676 106.194 156.891C106.194 159.106 101.507 160.909 95.7544 160.909C90.0021 160.909 85.3145 159.106 85.3145 156.891ZM105.731 156.891C105.731 154.779 101.266 153.045 95.7544 153.045C90.2597 153.045 85.7781 154.779 85.7781 156.891C85.7781 159.003 90.2597 160.72 95.7544 160.72C101.266 160.72 105.731 159.003 105.731 156.891Z" fill="#FFC022"/>
<path d="M94.4149 155.328L88.697 156.977V158.127L94.5523 156.324C95.1361 156.788 95.9603 157.131 97.0421 157.371C97.1222 157.394 97.2081 157.412 97.2996 157.423V158.436H99.4288V157.663C99.8753 157.681 100.322 157.681 100.682 157.681V158.436H102.812V155.38H100.682V156.856C100.339 156.874 99.8925 156.874 99.4288 156.839V155.38H97.2996V156.427C96.8017 156.221 96.3553 155.946 96.0805 155.551L94.4149 155.328Z" fill="#FFC022"/>
<path d="M80.9875 153.885C80.9875 157.027 87.5983 159.569 95.7545 159.569C103.911 159.569 110.522 157.027 110.522 153.885V151.206H80.9875V153.885Z" fill="#FF931E"/>
<path d="M94.3467 152.579V159.551C94.816 159.562 95.2854 159.568 95.7547 159.568V152.579H94.3467Z" fill="#D17918"/>
<path d="M91.4963 152.579V159.328C92.2633 159.419 93.0532 159.482 93.8659 159.516V152.579H91.4963Z" fill="#D17918"/>
<path d="M90.9123 159.259V151.223H80.9875V153.884C80.9875 156.374 85.1429 158.486 90.9123 159.259Z" fill="#D17918"/>
<path d="M101.026 152.579V159.19C101.187 159.167 101.347 159.144 101.507 159.121V152.579H101.026Z" fill="#D17918"/>
<path d="M99.189 159.413C99.3492 159.402 99.5095 159.385 99.6697 159.362V152.579H99.189V159.413Z" fill="#D17918"/>
<path d="M96.8535 152.579V159.551C97.0939 159.551 97.3286 159.545 97.5575 159.534V152.579H96.8535Z" fill="#D17918"/>
<path d="M95.7548 156.889C87.5986 156.889 80.9878 154.348 80.9878 151.206C80.9878 148.063 87.5986 145.522 95.7548 145.522C103.911 145.522 110.522 148.063 110.522 151.206C110.522 154.348 103.911 156.889 95.7548 156.889Z" fill="#FF931E"/>
<path style="mix-blend-mode:multiply" opacity="0.4" d="M104.083 155.893C103.659 155.916 103.236 155.928 102.812 155.928C94.6558 155.928 88.045 153.386 88.045 150.244C88.045 148.287 90.5863 146.57 94.4841 145.539C86.9289 145.797 80.9878 148.235 80.9878 151.206C80.9878 154.348 87.5986 156.889 95.7548 156.889C98.8455 156.889 101.713 156.529 104.083 155.893Z" fill="url(#paint1_linear_1078_1336)"/>
<path fill-rule="evenodd" clip-rule="evenodd" d="M95.7549 156.889C87.7533 156.889 81.2455 154.433 81.0051 151.377C81.2455 148.321 87.7533 145.882 95.7549 145.882C103.757 145.882 110.282 148.321 110.522 151.377C110.282 154.433 103.757 156.889 95.7549 156.889ZM107.775 151.566C107.775 149.007 102.383 146.93 95.7549 146.93C89.127 146.93 83.7353 149.007 83.7353 151.566C83.7353 154.107 89.127 156.185 95.7549 156.185C102.383 156.185 107.775 154.107 107.775 151.566Z" fill="#D17918"/>
<path d="M94.4154 150.416L88.6975 152.064V153.198L94.5528 151.395C95.1366 151.858 95.9608 152.219 97.0426 152.459C97.1227 152.471 97.2086 152.488 97.3001 152.511V153.524H99.4293V152.734C99.8758 152.768 100.322 152.768 100.683 152.751V153.524H102.812V150.468H100.683V151.944C100.339 151.961 99.8929 151.961 99.4293 151.927V150.468H97.3001V151.515C96.8022 151.309 96.3557 151.034 96.081 150.639L94.4154 150.416Z" fill="#D17918"/>
<path fill-rule="evenodd" clip-rule="evenodd" d="M95.7548 156.889C87.5986 156.889 80.9878 154.348 80.9878 151.206C80.9878 148.063 87.5986 145.522 95.7548 145.522C103.911 145.522 110.522 148.063 110.522 151.206C110.522 154.348 103.911 156.889 95.7548 156.889ZM95.7548 146.587C89.1268 146.587 83.7351 148.647 83.7351 151.206C83.7351 153.764 89.1268 155.825 95.7548 155.825C102.383 155.825 107.774 153.764 107.774 151.206C107.774 148.647 102.383 146.587 95.7548 146.587Z" fill="#FFC022"/>
<path fill-rule="evenodd" clip-rule="evenodd" d="M85.3145 151.206C85.3145 148.991 90.0021 147.188 95.7544 147.188C101.507 147.188 106.194 148.991 106.194 151.206C106.194 153.421 101.507 155.224 95.7544 155.224C90.0021 155.224 85.3145 153.421 85.3145 151.206ZM105.731 151.206C105.731 149.094 101.266 147.377 95.7544 147.377C90.2597 147.377 85.7781 149.094 85.7781 151.206C85.7781 153.318 90.2597 155.035 95.7544 155.035C101.266 155.035 105.731 153.318 105.731 151.206Z" fill="#FFC022"/>
<path d="M94.4154 149.66L88.6975 151.291V152.442L94.5528 150.639C95.1366 151.102 95.9608 151.446 97.0426 151.686C97.1227 151.709 97.2086 151.726 97.3001 151.738V152.751H99.4293V151.978C99.8758 151.995 100.322 151.995 100.683 151.995V152.751H102.812V149.694H100.683V151.171C100.339 151.188 99.8929 151.188 99.4293 151.154V149.694H97.3001V150.742C96.8022 150.553 96.3557 150.261 96.081 149.866L94.4154 149.66Z" fill="#FFC022"/>
<path d="M80.9861 148.2C80.9861 151.343 87.5969 153.884 95.7531 153.884C103.909 153.884 110.52 151.343 110.52 148.2V145.522H80.9861V148.2Z" fill="#FF931E"/>
<path d="M94.3445 146.895V153.867C94.8138 153.878 95.2832 153.884 95.7525 153.884V146.895H94.3445Z" fill="#D17918"/>
<path d="M91.4944 146.895V153.643C92.2614 153.735 93.0512 153.804 93.864 153.849V146.895H91.4944Z" fill="#D17918"/>
<path d="M90.9106 153.575V145.539H80.9858V148.2C80.9858 150.69 85.1412 152.802 90.9106 153.575Z" fill="#D17918"/>
<path d="M101.024 146.895V153.523C101.185 153.5 101.345 153.472 101.505 153.437V146.895H101.024Z" fill="#D17918"/>
<path d="M99.1868 153.729C99.347 153.718 99.5073 153.706 99.6676 153.695V146.895H99.1868V153.729Z" fill="#D17918"/>
<path d="M96.8516 146.895V153.867C97.092 153.867 97.3266 153.861 97.5556 153.849V146.895H96.8516Z" fill="#D17918"/>
<path d="M95.7528 151.205C87.5966 151.205 80.9858 148.663 80.9858 145.521C80.9858 142.379 87.5966 139.837 95.7528 139.837C103.909 139.837 110.52 142.379 110.52 145.521C110.52 148.663 103.909 151.205 95.7528 151.205Z" fill="#FF931E"/>
<path style="mix-blend-mode:multiply" opacity="0.4" d="M104.081 150.209C103.657 150.232 103.234 150.243 102.81 150.243C94.6539 150.243 88.0431 147.702 88.0431 144.559C88.0431 142.602 90.5844 140.885 94.4822 139.872C86.927 140.112 80.9858 142.55 80.9858 145.521C80.9858 148.663 87.5966 151.205 95.7528 151.205C98.8436 151.205 101.711 150.844 104.081 150.209Z" fill="url(#paint2_linear_1078_1336)"/>
<path fill-rule="evenodd" clip-rule="evenodd" d="M95.753 151.204C87.7513 151.204 81.2436 148.749 81.0032 145.692C81.2436 142.636 87.7513 140.198 95.753 140.198C103.755 140.198 110.28 142.636 110.52 145.692C110.28 148.749 103.755 151.204 95.753 151.204ZM107.773 145.881C107.773 143.323 102.381 141.245 95.753 141.245C89.125 141.245 83.7333 143.323 83.7333 145.881C83.7333 148.423 89.125 150.5 95.753 150.5C102.381 150.5 107.773 148.423 107.773 145.881Z" fill="#D17918"/>
<path d="M94.4135 144.731L88.6956 146.38V147.513L94.5508 145.71C95.1346 146.191 95.9589 146.534 97.0406 146.775C97.1207 146.786 97.2066 146.803 97.2982 146.826V147.839H99.4274V147.05C99.8738 147.084 100.32 147.084 100.681 147.067V147.839H102.81V144.783H100.681V146.26C100.337 146.277 99.891 146.277 99.4274 146.242V144.783H97.2982V145.83C96.8002 145.624 96.3538 145.35 96.0791 144.955L94.4135 144.731Z" fill="#D17918"/>
<path fill-rule="evenodd" clip-rule="evenodd" d="M95.7528 151.205C87.5966 151.205 80.9858 148.663 80.9858 145.521C80.9858 142.379 87.5966 139.837 95.7528 139.837C103.909 139.837 110.52 142.379 110.52 145.521C110.52 148.663 103.909 151.205 95.7528 151.205ZM95.7528 140.902C89.1249 140.902 83.7332 142.98 83.7332 145.521C83.7332 148.079 89.1249 150.14 95.7528 150.14C102.381 150.14 107.772 148.079 107.772 145.521C107.772 142.98 102.381 140.902 95.7528 140.902Z" fill="#FFC022"/>
<path fill-rule="evenodd" clip-rule="evenodd" d="M85.313 145.521C85.313 143.306 90.0006 141.503 95.7529 141.503C101.505 141.503 106.193 143.306 106.193 145.521C106.193 147.736 101.505 149.539 95.7529 149.539C90.0006 149.539 85.313 147.736 85.313 145.521ZM105.729 145.521C105.729 143.409 101.265 141.692 95.7529 141.692C90.2582 141.692 85.7766 143.409 85.7766 145.521C85.7766 147.633 90.2582 149.367 95.7529 149.367C101.265 149.367 105.729 147.633 105.729 145.521Z" fill="#FFC022"/>
<path d="M94.4135 143.975L88.6956 145.607V146.757L94.5508 144.954C95.1346 145.418 95.9589 145.778 97.0406 146.002C97.1207 146.024 97.2066 146.042 97.2982 146.053V147.083H99.4274V146.293C99.8738 146.311 100.32 146.311 100.681 146.311V147.083H102.81V144.027H100.681V145.504C100.337 145.504 99.891 145.504 99.4274 145.469V144.027H97.2982V145.057C96.8002 144.868 96.3538 144.576 96.0791 144.181L94.4135 143.975Z" fill="#FFC022"/>
<path d="M117.355 148.667C117.355 151.81 123.966 154.351 132.122 154.351C140.295 154.351 146.906 151.81 146.906 148.667V145.989H117.355V148.667Z" fill="#FF931E"/>
<path d="M130.731 147.362V154.316C131.189 154.339 131.653 154.351 132.122 154.351V147.362H130.731Z" fill="#D17918"/>
<path d="M127.881 147.362V154.11C128.636 154.19 129.421 154.253 130.233 154.299V147.362H127.881Z" fill="#D17918"/>
<path d="M127.297 154.025V145.989H117.355V148.667C117.355 151.157 121.51 153.269 127.297 154.025Z" fill="#D17918"/>
<path d="M137.394 147.362V153.973C137.554 153.95 137.714 153.927 137.875 153.904V147.362H137.394Z" fill="#D17918"/>
<path d="M135.556 154.196C135.717 154.173 135.877 154.156 136.037 154.145V147.362H135.556V154.196Z" fill="#D17918"/>
<path d="M133.221 147.362V154.333C133.461 154.322 133.696 154.311 133.925 154.299V147.362H133.221Z" fill="#D17918"/>
<path d="M132.122 151.656C123.966 151.656 117.355 149.115 117.355 145.99C117.355 142.847 123.966 140.306 132.122 140.306C140.296 140.306 146.906 142.847 146.906 145.99C146.906 149.115 140.296 151.656 132.122 151.656Z" fill="#FF931E"/>
<path style="mix-blend-mode:multiply" opacity="0.4" d="M140.45 150.678C140.038 150.689 139.614 150.695 139.179 150.695C131.023 150.695 124.412 148.153 124.412 145.011C124.412 143.071 126.971 141.354 130.852 140.323C123.296 140.564 117.355 143.002 117.355 145.99C117.355 149.115 123.966 151.656 132.122 151.656C135.213 151.656 138.081 151.296 140.45 150.678Z" fill="url(#paint3_linear_1078_1336)"/>
<path fill-rule="evenodd" clip-rule="evenodd" d="M132.122 151.656C124.12 151.656 117.612 149.218 117.372 146.162C117.612 143.105 124.12 140.65 132.122 140.65C140.141 140.65 146.648 143.105 146.889 146.162C146.648 149.218 140.141 151.656 132.122 151.656ZM144.159 146.333C144.159 143.792 138.767 141.714 132.122 141.714C125.494 141.714 120.102 143.792 120.102 146.333C120.102 148.892 125.494 150.952 132.122 150.952C138.767 150.952 144.159 148.892 144.159 146.333Z" fill="#D17918"/>
<path d="M130.783 145.2L125.082 146.831V147.982L130.92 146.179C131.504 146.643 132.328 147.003 133.41 147.226C133.502 147.249 133.588 147.266 133.668 147.278V148.291H135.797V147.518C136.261 147.535 136.69 147.535 137.068 147.535V148.291H139.18V145.235H137.068V146.711C136.707 146.728 136.261 146.728 135.797 146.694V145.235H133.668V146.282C133.17 146.093 132.741 145.801 132.449 145.406L130.783 145.2Z" fill="#D17918"/>
<path fill-rule="evenodd" clip-rule="evenodd" d="M132.122 151.656C123.966 151.656 117.355 149.115 117.355 145.99C117.355 142.847 123.966 140.306 132.122 140.306C140.296 140.306 146.906 142.847 146.906 145.99C146.906 149.115 140.296 151.656 132.122 151.656ZM132.122 141.354C125.494 141.354 120.103 143.431 120.103 145.99C120.103 148.531 125.494 150.609 132.122 150.609C138.767 150.609 144.159 148.531 144.159 145.99C144.159 143.431 138.767 141.354 132.122 141.354Z" fill="#FFC022"/>
<path fill-rule="evenodd" clip-rule="evenodd" d="M121.699 145.99C121.699 143.775 126.37 141.972 132.122 141.972C137.891 141.972 142.562 143.775 142.562 145.99C142.562 148.188 137.891 149.991 132.122 149.991C126.37 149.991 121.699 148.188 121.699 145.99ZM142.098 145.99C142.098 143.861 137.634 142.144 132.122 142.144C126.627 142.144 122.146 143.861 122.146 145.99C122.146 148.102 126.627 149.819 132.122 149.819C137.634 149.819 142.098 148.102 142.098 145.99Z" fill="#FFC022"/>
<path d="M130.783 144.427L125.082 146.076V147.209L130.92 145.406C131.504 145.87 132.328 146.23 133.41 146.471C133.502 146.482 133.588 146.499 133.668 146.522V147.535H135.797V146.746C136.261 146.78 136.69 146.78 137.068 146.763V147.535H139.18V144.479H137.068V145.956C136.707 145.973 136.261 145.973 135.797 145.939V144.479H133.668V145.526C133.17 145.32 132.741 145.046 132.449 144.651L130.783 144.427Z" fill="#FFC022"/>
<path d="M117.354 142.985C117.354 146.127 123.964 148.669 132.12 148.669C140.294 148.669 146.905 146.127 146.905 142.985V140.306H117.354V142.985Z" fill="#FF931E"/>
<path d="M130.729 141.68V148.634C131.187 148.657 131.651 148.668 132.12 148.668V141.68H130.729Z" fill="#D17918"/>
<path d="M127.879 141.68V148.428C128.635 148.519 129.419 148.582 130.232 148.617V141.68H127.879Z" fill="#D17918"/>
<path d="M127.295 148.36V140.306H117.354V142.985C117.354 145.475 121.509 147.587 127.295 148.36Z" fill="#D17918"/>
<path d="M137.392 141.68V148.29C137.552 148.268 137.712 148.245 137.872 148.222V141.68H137.392Z" fill="#D17918"/>
<path d="M135.554 148.514C135.714 148.502 135.875 148.485 136.035 148.462V141.68H135.554V148.514Z" fill="#D17918"/>
<path d="M133.219 141.68V148.651C133.459 148.64 133.694 148.628 133.923 148.617V141.68H133.219Z" fill="#D17918"/>
<path d="M132.12 145.991C123.964 145.991 117.353 143.432 117.353 140.307C117.353 137.165 123.964 134.624 132.12 134.624C140.294 134.624 146.904 137.165 146.904 140.307C146.904 143.432 140.294 145.991 132.12 145.991Z" fill="#FF931E"/>
<path style="mix-blend-mode:multiply" opacity="0.4" d="M140.448 144.995C140.036 145.006 139.613 145.012 139.178 145.012C131.022 145.012 124.411 142.471 124.411 139.328C124.411 137.388 126.969 135.671 130.85 134.641C123.295 134.898 117.354 137.336 117.354 140.307C117.354 143.432 123.964 145.991 132.12 145.991C135.211 145.991 138.079 145.613 140.448 144.995Z" fill="url(#paint4_linear_1078_1336)"/>
<path fill-rule="evenodd" clip-rule="evenodd" d="M132.12 145.991C124.119 145.991 117.611 143.535 117.371 140.479C117.611 137.422 124.119 134.967 132.12 134.967C140.139 134.967 146.647 137.422 146.887 140.479C146.647 143.535 140.139 145.991 132.12 145.991ZM144.157 140.65C144.157 138.109 138.766 136.031 132.12 136.031C125.492 136.031 120.101 138.109 120.101 140.65C120.101 143.209 125.492 145.287 132.12 145.287C138.766 145.287 144.157 143.209 144.157 140.65Z" fill="#D17918"/>
<path d="M130.781 139.518L125.08 141.149V142.299L130.918 140.496C131.502 140.96 132.326 141.321 133.408 141.544C133.5 141.567 133.586 141.584 133.666 141.595V142.626H135.795V141.836C136.259 141.853 136.688 141.853 137.066 141.853V142.626H139.178V139.569H137.066V141.046C136.705 141.046 136.259 141.046 135.795 141.029V139.569H133.666V140.599C133.168 140.41 132.739 140.119 132.447 139.724L130.781 139.518Z" fill="#D17918"/>
<path fill-rule="evenodd" clip-rule="evenodd" d="M132.12 145.991C123.964 145.991 117.353 143.432 117.353 140.307C117.353 137.165 123.964 134.624 132.12 134.624C140.294 134.624 146.904 137.165 146.904 140.307C146.904 143.432 140.294 145.991 132.12 145.991ZM132.12 135.671C125.492 135.671 120.101 137.749 120.101 140.307C120.101 142.848 125.492 144.926 132.12 144.926C138.765 144.926 144.157 142.848 144.157 140.307C144.157 137.749 138.765 135.671 132.12 135.671Z" fill="#FFC022"/>
<path fill-rule="evenodd" clip-rule="evenodd" d="M121.698 140.307C121.698 138.092 126.368 136.289 132.12 136.289C137.89 136.289 142.56 138.092 142.56 140.307C142.56 142.522 137.89 144.307 132.12 144.307C126.368 144.307 121.698 142.522 121.698 140.307ZM142.097 140.307C142.097 138.177 137.632 136.46 132.12 136.46C126.626 136.46 122.144 138.177 122.144 140.307C122.144 142.419 126.626 144.136 132.12 144.136C137.632 144.136 142.097 142.419 142.097 140.307Z" fill="#FFC022"/>
<path d="M130.781 138.744L125.08 140.393V141.526L130.918 139.723C131.502 140.204 132.326 140.547 133.408 140.787C133.5 140.799 133.586 140.816 133.666 140.839V141.852H135.795V141.062C136.259 141.097 136.688 141.097 137.066 141.079V141.852H139.178V138.796H137.066V140.272C136.705 140.29 136.259 140.29 135.795 140.255V138.796H133.666V139.843C133.168 139.637 132.739 139.362 132.447 138.967L130.781 138.744Z" fill="#FFC022"/>
<path d="M117.355 137.297C117.355 140.439 123.966 142.981 132.122 142.981C140.295 142.981 146.906 140.439 146.906 137.297V134.618H117.355V137.297Z" fill="#FF931E"/>
<path d="M130.731 135.992V142.947C131.189 142.97 131.653 142.981 132.122 142.981V135.992H130.731Z" fill="#D17918"/>
<path d="M127.881 135.992V142.741C128.636 142.832 129.421 142.895 130.233 142.929V135.992H127.881Z" fill="#D17918"/>
<path d="M127.297 142.672V134.619H117.355V137.298C117.355 139.788 121.51 141.9 127.297 142.672Z" fill="#D17918"/>
<path d="M137.394 135.992V142.603C137.554 142.58 137.714 142.557 137.875 142.535V135.992H137.394Z" fill="#D17918"/>
<path d="M135.556 142.826C135.717 142.815 135.877 142.798 136.037 142.775V135.992H135.556V142.826Z" fill="#D17918"/>
<path d="M133.221 135.992V142.964C133.461 142.952 133.696 142.941 133.925 142.929V135.992H133.221Z" fill="#D17918"/>
<path d="M132.122 140.302C123.966 140.302 117.355 137.761 117.355 134.618C117.355 131.476 123.966 128.935 132.122 128.935C140.296 128.935 146.906 131.476 146.906 134.618C146.906 137.761 140.296 140.302 132.122 140.302Z" fill="#FF931E"/>
<path style="mix-blend-mode:multiply" opacity="0.4" d="M140.45 139.306C140.038 139.318 139.614 139.323 139.179 139.323C131.023 139.323 124.412 136.782 124.412 133.657C124.412 131.699 126.971 129.982 130.852 128.952C123.296 129.21 117.355 131.648 117.355 134.619C117.355 137.761 123.966 140.302 132.122 140.302C135.213 140.302 138.081 139.924 140.45 139.306Z" fill="url(#paint5_linear_1078_1336)"/>
<path fill-rule="evenodd" clip-rule="evenodd" d="M132.122 140.302C124.12 140.302 117.612 137.846 117.372 134.79C117.612 131.734 124.12 129.278 132.122 129.278C140.141 129.278 146.648 131.734 146.889 134.79C146.648 137.846 140.141 140.302 132.122 140.302ZM144.159 134.962C144.159 132.42 138.767 130.343 132.122 130.343C125.494 130.343 120.102 132.42 120.102 134.962C120.102 137.52 125.494 139.598 132.122 139.598C138.767 139.598 144.159 137.52 144.159 134.962Z" fill="#D17918"/>
<path d="M130.783 133.829L125.082 135.46V136.611L130.92 134.808C131.504 135.271 132.328 135.632 133.41 135.855C133.502 135.878 133.588 135.895 133.668 135.907V136.937H135.797V136.147C136.261 136.164 136.69 136.164 137.068 136.164V136.937H139.18V133.88H137.068V135.357C136.707 135.357 136.261 135.357 135.797 135.34V133.88H133.668V134.911C133.17 134.722 132.741 134.447 132.449 134.052L130.783 133.829Z" fill="#D17918"/>
<path fill-rule="evenodd" clip-rule="evenodd" d="M132.122 140.302C123.966 140.302 117.355 137.761 117.355 134.618C117.355 131.476 123.966 128.935 132.122 128.935C140.296 128.935 146.906 131.476 146.906 134.618C146.906 137.761 140.296 140.302 132.122 140.302ZM132.122 129.982C125.494 129.982 120.103 132.06 120.103 134.618C120.103 137.16 125.494 139.237 132.122 139.237C138.767 139.237 144.159 137.16 144.159 134.618C144.159 132.06 138.767 129.982 132.122 129.982Z" fill="#FFC022"/>
<path fill-rule="evenodd" clip-rule="evenodd" d="M121.699 134.619C121.699 132.404 126.369 130.601 132.122 130.601C137.891 130.601 142.562 132.404 142.562 134.619C142.562 136.834 137.891 138.637 132.122 138.637C126.369 138.637 121.699 136.834 121.699 134.619ZM142.098 134.619C142.098 132.507 137.634 130.772 132.122 130.772C126.627 130.772 122.145 132.507 122.145 134.619C122.145 136.731 126.627 138.448 132.122 138.448C137.634 138.448 142.098 136.731 142.098 134.619Z" fill="#FFC022"/>
<path d="M130.783 133.056L125.082 134.705V135.838L130.92 134.035C131.504 134.516 132.328 134.859 133.41 135.099C133.502 135.111 133.588 135.128 133.668 135.151V136.164H135.797V135.391C136.261 135.409 136.69 135.409 137.068 135.391V136.164H139.18V133.108H137.068V134.584C136.707 134.602 136.261 134.602 135.797 134.567V133.108H133.668V134.155C133.17 133.949 132.741 133.674 132.449 133.279L130.783 133.056Z" fill="#FFC022"/>
<path d="M117.354 131.615C117.354 134.757 123.964 137.299 132.12 137.299C140.294 137.299 146.905 134.757 146.905 131.615V128.936H117.354V131.615Z" fill="#FF931E"/>
<path d="M130.729 130.31V137.282C131.187 137.293 131.651 137.299 132.12 137.299V130.31H130.729Z" fill="#D17918"/>
<path d="M127.879 130.31V137.058C128.635 137.15 129.419 137.213 130.232 137.247V130.31H127.879Z" fill="#D17918"/>
<path d="M127.295 136.99V128.954H117.354V131.615C117.354 134.105 121.509 136.217 127.295 136.99Z" fill="#D17918"/>
<path d="M137.392 130.31V136.921C137.552 136.898 137.712 136.875 137.872 136.852V130.31H137.392Z" fill="#D17918"/>
<path d="M135.554 137.144C135.714 137.133 135.875 137.116 136.035 137.093V130.31H135.554V137.144Z" fill="#D17918"/>
<path d="M133.219 130.31V137.282C133.459 137.282 133.694 137.276 133.923 137.265V130.31H133.219Z" fill="#D17918"/>
<path d="M132.12 134.62C123.964 134.62 117.353 132.079 117.353 128.937C117.353 125.794 123.964 123.253 132.12 123.253C140.294 123.253 146.904 125.794 146.904 128.937C146.904 132.079 140.294 134.62 132.12 134.62Z" fill="#FF931E"/>
<path style="mix-blend-mode:multiply" opacity="0.4" d="M140.448 133.624C140.036 133.647 139.612 133.659 139.177 133.659C131.021 133.659 124.411 131.1 124.411 127.975C124.411 126.018 126.969 124.301 130.85 123.27C123.294 123.528 117.353 125.966 117.353 128.937C117.353 132.079 123.964 134.62 132.12 134.62C135.211 134.62 138.079 134.26 140.448 133.624Z" fill="url(#paint6_linear_1078_1336)"/>
<path fill-rule="evenodd" clip-rule="evenodd" d="M132.12 134.62C124.119 134.62 117.611 132.164 117.371 129.108C117.611 126.052 124.119 123.613 132.12 123.613C140.139 123.613 146.647 126.052 146.887 129.108C146.647 132.164 140.139 134.62 132.12 134.62ZM144.157 129.28C144.157 126.738 138.766 124.661 132.12 124.661C125.492 124.661 120.101 126.738 120.101 129.28C120.101 131.838 125.492 133.916 132.12 133.916C138.766 133.916 144.157 131.838 144.157 129.28Z" fill="#D17918"/>
<path d="M130.781 128.147L125.08 129.795V130.929L130.918 129.126C131.502 129.589 132.326 129.95 133.408 130.19C133.5 130.202 133.586 130.219 133.666 130.242V131.255H135.795V130.465C136.259 130.482 136.688 130.499 137.066 130.482V131.255H139.178V128.198H137.066V129.675C136.705 129.675 136.259 129.692 135.795 129.658V128.198H133.666V129.229C133.168 129.04 132.739 128.765 132.447 128.37L130.781 128.147Z" fill="#D17918"/>
<path fill-rule="evenodd" clip-rule="evenodd" d="M132.12 134.62C123.964 134.62 117.353 132.079 117.353 128.937C117.353 125.794 123.964 123.253 132.12 123.253C140.294 123.253 146.904 125.794 146.904 128.937C146.904 132.079 140.294 134.62 132.12 134.62ZM132.12 124.318C125.492 124.318 120.101 126.378 120.101 128.937C120.101 131.478 125.492 133.555 132.12 133.555C138.765 133.555 144.157 131.478 144.157 128.937C144.157 126.378 138.765 124.318 132.12 124.318Z" fill="#FFC022"/>
<path fill-rule="evenodd" clip-rule="evenodd" d="M121.698 128.936C121.698 126.721 126.368 124.918 132.12 124.918C137.89 124.918 142.56 126.721 142.56 128.936C142.56 131.151 137.89 132.954 132.12 132.954C126.368 132.954 121.698 131.151 121.698 128.936ZM142.097 128.936C142.097 126.824 137.632 125.09 132.12 125.09C126.626 125.09 122.144 126.824 122.144 128.936C122.144 131.048 126.626 132.765 132.12 132.765C137.632 132.765 142.097 131.048 142.097 128.936Z" fill="#FFC022"/>
<path d="M130.781 127.391L125.08 129.022V130.173L130.918 128.37C131.502 128.833 132.326 129.177 133.408 129.417C133.5 129.44 133.586 129.457 133.666 129.469V130.482H135.795V129.709C136.259 129.726 136.688 129.726 137.066 129.726V130.482H139.178V127.425H137.066V128.902C136.705 128.919 136.259 128.919 135.795 128.885V127.425H133.666V128.473C133.168 128.267 132.739 127.992 132.447 127.597L130.781 127.391Z" fill="#FFC022"/>
<path d="M117.355 125.93C117.355 129.073 123.966 131.614 132.122 131.614C140.295 131.614 146.906 129.073 146.906 125.93V123.252H117.355V125.93Z" fill="#FF931E"/>
<path d="M130.731 124.626V131.598C131.189 131.609 131.653 131.615 132.122 131.615V124.626H130.731Z" fill="#D17918"/>
<path d="M127.881 124.626V131.374C128.636 131.466 129.421 131.529 130.233 131.563V124.626H127.881Z" fill="#D17918"/>
<path d="M127.297 131.306V123.27H117.355V125.931C117.355 128.421 121.511 130.533 127.297 131.306Z" fill="#D17918"/>
<path d="M137.394 124.626V131.254C137.554 131.22 137.714 131.191 137.875 131.168V124.626H137.394Z" fill="#D17918"/>
<path d="M135.556 131.46C135.717 131.449 135.877 131.432 136.037 131.409V124.626H135.556V131.46Z" fill="#D17918"/>
<path d="M133.221 124.626V131.598C133.461 131.598 133.696 131.592 133.925 131.58V124.626H133.221Z" fill="#D17918"/>
<path d="M132.122 128.936C123.966 128.936 117.355 126.394 117.355 123.252C117.355 120.11 123.966 117.568 132.122 117.568C140.296 117.568 146.906 120.11 146.906 123.252C146.906 126.394 140.296 128.936 132.122 128.936Z" fill="#FF931E"/>
<path style="mix-blend-mode:multiply" opacity="0.4" d="M140.45 127.94C140.038 127.963 139.614 127.974 139.179 127.974C131.023 127.974 124.412 125.433 124.412 122.29C124.412 120.333 126.971 118.616 130.852 117.603C123.296 117.843 117.355 120.281 117.355 123.252C117.355 126.394 123.966 128.936 132.122 128.936C135.213 128.936 138.081 128.575 140.45 127.94Z" fill="url(#paint7_linear_1078_1336)"/>
<path fill-rule="evenodd" clip-rule="evenodd" d="M132.122 128.935C124.12 128.935 117.612 126.48 117.372 123.423C117.612 120.367 124.12 117.929 132.122 117.929C140.141 117.929 146.648 120.367 146.889 123.423C146.648 126.48 140.141 128.935 132.122 128.935ZM144.159 123.612C144.159 121.054 138.767 118.976 132.122 118.976C125.494 118.976 120.102 121.054 120.102 123.612C120.102 126.154 125.494 128.231 132.122 128.231C138.767 128.231 144.159 126.154 144.159 123.612Z" fill="#D17918"/>
<path d="M130.783 122.462L125.082 124.11V125.243L130.92 123.44C131.504 123.904 132.328 124.265 133.41 124.505C133.502 124.516 133.588 124.534 133.668 124.557V125.57H135.797V124.78C136.261 124.814 136.69 124.814 137.068 124.797V125.57H139.18V122.513H137.068V123.99C136.707 124.007 136.261 124.007 135.797 123.973V122.513H133.668V123.561C133.17 123.355 132.741 123.08 132.449 122.685L130.783 122.462Z" fill="#D17918"/>
<path fill-rule="evenodd" clip-rule="evenodd" d="M132.122 128.936C123.966 128.936 117.355 126.394 117.355 123.252C117.355 120.11 123.966 117.568 132.122 117.568C140.296 117.568 146.906 120.11 146.906 123.252C146.906 126.394 140.296 128.936 132.122 128.936ZM132.122 118.633C125.494 118.633 120.103 120.711 120.103 123.252C120.103 125.81 125.494 127.871 132.122 127.871C138.767 127.871 144.159 125.81 144.159 123.252C144.159 120.711 138.767 118.633 132.122 118.633Z" fill="#FFC022"/>
<path fill-rule="evenodd" clip-rule="evenodd" d="M121.699 123.252C121.699 121.037 126.37 119.234 132.122 119.234C137.891 119.234 142.562 121.037 142.562 123.252C142.562 125.467 137.891 127.27 132.122 127.27C126.37 127.27 121.699 125.467 121.699 123.252ZM142.098 123.252C142.098 121.14 137.634 119.423 132.122 119.423C126.627 119.423 122.146 121.14 122.146 123.252C122.146 125.364 126.627 127.098 132.122 127.098C137.634 127.098 142.098 125.364 142.098 123.252Z" fill="#FFC022"/>
<path d="M130.783 121.706L125.082 123.338V124.488L130.92 122.685C131.504 123.149 132.328 123.509 133.41 123.732C133.502 123.755 133.588 123.773 133.668 123.784V124.797H135.797V124.024C136.261 124.042 136.69 124.042 137.068 124.042V124.797H139.18V121.741H137.068V123.217C136.707 123.235 136.261 123.235 135.797 123.2V121.741H133.668V122.788C133.17 122.599 132.741 122.307 132.449 121.912L130.783 121.706Z" fill="#FFC022"/>
<path d="M104.013 165.836C104.013 168.961 110.624 171.52 118.78 171.52C126.936 171.52 133.547 168.961 133.547 165.836V163.14H104.013V165.836Z" fill="#FF931E"/>
<path d="M117.372 164.531V171.485C117.83 171.508 118.3 171.519 118.78 171.519V164.531H117.372Z" fill="#D17918"/>
<path d="M114.522 164.531V171.279C115.289 171.359 116.079 171.422 116.891 171.468V164.531H114.522Z" fill="#D17918"/>
<path d="M113.938 171.193V163.157H104.013V165.836C104.013 168.308 108.151 170.421 113.938 171.193Z" fill="#D17918"/>
<path d="M124.034 164.531V171.141C124.195 171.118 124.355 171.096 124.515 171.073V164.531H124.034Z" fill="#D17918"/>
<path d="M122.197 171.365C122.358 171.342 122.518 171.324 122.678 171.313V164.531H122.197V171.365Z" fill="#D17918"/>
<path d="M119.879 164.531V171.502C120.108 171.49 120.343 171.479 120.583 171.468V164.531H119.879Z" fill="#D17918"/>
<path d="M118.78 168.823C110.624 168.823 104.013 166.282 104.013 163.14C104.013 160.014 110.624 157.473 118.78 157.473C126.936 157.473 133.547 160.014 133.547 163.14C133.547 166.282 126.936 168.823 118.78 168.823Z" fill="#FF931E"/>
<path style="mix-blend-mode:multiply" opacity="0.4" d="M127.108 167.845C126.685 167.856 126.261 167.862 125.837 167.862C117.664 167.862 111.053 165.32 111.053 162.178C111.053 160.238 113.612 158.504 117.51 157.49C109.937 157.731 104.013 160.169 104.013 163.14C104.013 166.282 110.624 168.823 118.78 168.823C121.871 168.823 124.738 168.463 127.108 167.845Z" fill="url(#paint8_linear_1078_1336)"/>
<path fill-rule="evenodd" clip-rule="evenodd" d="M118.78 168.823C110.779 168.823 104.254 166.385 104.013 163.328C104.254 160.272 110.779 157.816 118.78 157.816C126.782 157.816 133.29 160.272 133.53 163.328C133.29 166.385 126.782 168.823 118.78 168.823ZM130.8 163.5C130.8 160.942 125.408 158.881 118.78 158.881C112.152 158.881 106.761 160.942 106.761 163.5C106.761 166.041 112.152 168.119 118.78 168.119C125.408 168.119 130.8 166.041 130.8 163.5Z" fill="#D17918"/>
<path d="M117.441 162.35L111.723 163.998V165.149L117.578 163.346C118.145 163.809 118.986 164.153 120.051 164.393C120.142 164.416 120.234 164.433 120.326 164.445V165.458H122.438V164.685C122.901 164.702 123.33 164.702 123.708 164.702V165.458H125.837V162.401H123.708V163.878C123.348 163.895 122.918 163.895 122.438 163.861V162.401H120.326V163.449C119.81 163.26 119.381 162.968 119.089 162.573L117.441 162.35Z" fill="#D17918"/>
<path fill-rule="evenodd" clip-rule="evenodd" d="M118.78 168.823C110.624 168.823 104.013 166.282 104.013 163.14C104.013 160.014 110.624 157.473 118.78 157.473C126.936 157.473 133.547 160.014 133.547 163.14C133.547 166.282 126.936 168.823 118.78 168.823ZM118.78 158.521C112.152 158.521 106.761 160.598 106.761 163.14C106.761 165.698 112.152 167.776 118.78 167.776C125.408 167.776 130.8 165.698 130.8 163.14C130.8 160.598 125.408 158.521 118.78 158.521Z" fill="#FFC022"/>
<path fill-rule="evenodd" clip-rule="evenodd" d="M108.34 163.139C108.34 160.941 113.028 159.138 118.78 159.138C124.532 159.138 129.22 160.941 129.22 163.139C129.22 165.354 124.532 167.157 118.78 167.157C113.028 167.157 108.34 165.354 108.34 163.139ZM128.757 163.139C128.757 161.027 124.275 159.31 118.78 159.31C113.268 159.31 108.804 161.027 108.804 163.139C108.804 165.268 113.268 166.986 118.78 166.986C124.275 166.986 128.757 165.268 128.757 163.139Z" fill="#FFC022"/>
<path d="M117.441 161.594L111.723 163.242V164.375L117.578 162.572C118.145 163.036 118.986 163.397 120.051 163.62C120.142 163.643 120.234 163.666 120.326 163.689V164.702H122.438V163.912C122.901 163.929 123.33 163.946 123.708 163.929V164.702H125.837V161.645H123.708V163.122C123.348 163.122 122.918 163.139 122.438 163.105V161.645H120.326V162.676C119.81 162.487 119.381 162.212 119.089 161.817L117.441 161.594Z" fill="#FFC022"/>
<path d="M104.013 160.155C104.013 163.297 110.624 165.839 118.78 165.839C126.936 165.839 133.547 163.297 133.547 160.155V157.476H104.013V160.155Z" fill="#FF931E"/>
<path d="M117.372 158.849V165.803C117.83 165.826 118.3 165.837 118.78 165.837V158.849H117.372Z" fill="#D17918"/>
<path d="M114.522 158.849V165.597C115.289 165.677 116.079 165.74 116.891 165.786V158.849H114.522Z" fill="#D17918"/>
<path d="M113.938 165.512V157.476H104.013V160.154C104.013 162.644 108.151 164.756 113.938 165.512Z" fill="#D17918"/>
<path d="M124.034 158.849V165.46C124.195 165.437 124.355 165.414 124.515 165.391V158.849H124.034Z" fill="#D17918"/>
<path d="M122.197 165.683C122.358 165.66 122.518 165.643 122.678 165.631V158.849H122.197V165.683Z" fill="#D17918"/>
<path d="M119.879 158.849V165.82C120.108 165.809 120.343 165.797 120.583 165.786V158.849H119.879Z" fill="#D17918"/>
<path d="M118.78 163.143C110.624 163.143 104.013 160.601 104.013 157.476C104.013 154.334 110.624 151.793 118.78 151.793C126.936 151.793 133.547 154.334 133.547 157.476C133.547 160.601 126.936 163.143 118.78 163.143Z" fill="#FF931E"/>
<path style="mix-blend-mode:multiply" opacity="0.4" d="M127.108 162.164C126.685 162.176 126.261 162.181 125.837 162.181C117.664 162.181 111.053 159.64 111.053 156.498C111.053 154.557 113.612 152.84 117.51 151.81C109.937 152.05 104.013 154.489 104.013 157.476C104.013 160.602 110.624 163.143 118.78 163.143C121.871 163.143 124.738 162.782 127.108 162.164Z" fill="url(#paint9_linear_1078_1336)"/>
<path fill-rule="evenodd" clip-rule="evenodd" d="M118.78 163.143C110.779 163.143 104.254 160.705 104.013 157.648C104.254 154.592 110.779 152.136 118.78 152.136C126.782 152.136 133.29 154.592 133.53 157.648C133.29 160.705 126.782 163.143 118.78 163.143ZM130.8 157.82C130.8 155.279 125.408 153.201 118.78 153.201C112.152 153.201 106.761 155.279 106.761 157.82C106.761 160.379 112.152 162.439 118.78 162.439C125.408 162.439 130.8 160.379 130.8 157.82Z" fill="#D17918"/>
<path d="M117.441 156.687L111.723 158.318V159.468L117.578 157.666C118.145 158.129 118.986 158.49 120.051 158.713C120.142 158.736 120.234 158.753 120.326 158.764V159.778H122.438V159.005C122.901 159.022 123.33 159.022 123.708 159.022V159.778H125.837V156.721H123.708V158.198C123.348 158.215 122.918 158.215 122.438 158.181V156.721H120.326V157.769C119.81 157.58 119.381 157.288 119.089 156.893L117.441 156.687Z" fill="#D17918"/>
<path fill-rule="evenodd" clip-rule="evenodd" d="M118.78 163.143C110.624 163.143 104.013 160.601 104.013 157.476C104.013 154.334 110.624 151.793 118.78 151.793C126.936 151.793 133.547 154.334 133.547 157.476C133.547 160.601 126.936 163.143 118.78 163.143ZM118.78 152.84C112.152 152.84 106.761 154.918 106.761 157.476C106.761 160.018 112.152 162.095 118.78 162.095C125.408 162.095 130.8 160.018 130.8 157.476C130.8 154.918 125.408 152.84 118.78 152.84Z" fill="#FFC022"/>
<path fill-rule="evenodd" clip-rule="evenodd" d="M108.34 157.476C108.34 155.261 113.028 153.458 118.78 153.458C124.532 153.458 129.22 155.261 129.22 157.476C129.22 159.674 124.532 161.477 118.78 161.477C113.028 161.477 108.34 159.674 108.34 157.476ZM128.756 157.476C128.756 155.347 124.275 153.63 118.78 153.63C113.268 153.63 108.804 155.347 108.804 157.476C108.804 159.588 113.268 161.305 118.78 161.305C124.275 161.305 128.756 159.588 128.756 157.476Z" fill="#FFC022"/>
<path d="M117.441 155.914L111.723 157.562V158.696L117.578 156.893C118.145 157.356 118.986 157.717 120.051 157.957C120.142 157.969 120.234 157.986 120.326 158.009V159.022H122.438V158.232C122.901 158.266 123.33 158.266 123.708 158.249V159.022H125.837V155.966H123.708V157.442C123.348 157.459 122.918 157.459 122.438 157.425V155.966H120.326V157.013C119.81 156.807 119.381 156.532 119.089 156.137L117.441 155.914Z" fill="#FFC022"/>
<path d="M104.013 154.469C104.013 157.612 110.624 160.153 118.78 160.153C126.936 160.153 133.547 157.612 133.547 154.469V151.791H104.013V154.469Z" fill="#FF931E"/>
<path d="M117.372 153.165V160.119C117.829 160.142 118.299 160.154 118.78 160.154V153.165H117.372Z" fill="#D17918"/>
<path d="M114.521 153.165V159.913C115.288 160.005 116.078 160.068 116.891 160.102V153.165H114.521Z" fill="#D17918"/>
<path d="M113.938 159.844V151.791H104.013V154.47C104.013 156.959 108.151 159.071 113.938 159.844Z" fill="#D17918"/>
<path d="M124.034 153.165V159.776C124.194 159.753 124.355 159.73 124.515 159.707V153.165H124.034Z" fill="#D17918"/>
<path d="M122.197 159.999C122.357 159.988 122.518 159.97 122.678 159.948V153.165H122.197V159.999Z" fill="#D17918"/>
<path d="M119.879 153.165V160.136C120.108 160.125 120.342 160.114 120.583 160.102V153.165H119.879Z" fill="#D17918"/>
<path d="M118.78 157.475C110.624 157.475 104.013 154.916 104.013 151.791C104.013 148.649 110.624 146.108 118.78 146.108C126.936 146.108 133.547 148.649 133.547 151.791C133.547 154.916 126.936 157.475 118.78 157.475Z" fill="#FF931E"/>
<path style="mix-blend-mode:multiply" opacity="0.4" d="M127.108 156.479C126.684 156.49 126.261 156.496 125.837 156.496C117.664 156.496 111.053 153.955 111.053 150.812C111.053 148.872 113.611 147.155 117.509 146.125C109.937 146.382 104.013 148.821 104.013 151.791C104.013 154.916 110.624 157.475 118.78 157.475C121.871 157.475 124.738 157.097 127.108 156.479Z" fill="url(#paint10_linear_1078_1336)"/>
<path fill-rule="evenodd" clip-rule="evenodd" d="M118.78 157.474C110.778 157.474 104.253 155.019 104.013 151.963C104.253 148.906 110.778 146.451 118.78 146.451C126.782 146.451 133.289 148.906 133.53 151.963C133.289 155.019 126.782 157.474 118.78 157.474ZM130.8 152.134C130.8 149.593 125.408 147.515 118.78 147.515C112.152 147.515 106.76 149.593 106.76 152.134C106.76 154.693 112.152 156.77 118.78 156.77C125.408 156.77 130.8 154.693 130.8 152.134Z" fill="#D17918"/>
<path d="M117.441 151.001L111.723 152.632V153.782L117.578 151.979C118.145 152.443 118.986 152.804 120.051 153.027C120.142 153.05 120.234 153.067 120.325 153.078V154.109H122.437V153.319C122.901 153.336 123.33 153.336 123.708 153.336V154.109H125.837V151.052H123.708V152.529C123.347 152.529 122.918 152.529 122.437 152.512V151.052H120.325V152.082C119.81 151.894 119.381 151.602 119.089 151.207L117.441 151.001Z" fill="#D17918"/>
<path fill-rule="evenodd" clip-rule="evenodd" d="M118.78 157.475C110.624 157.475 104.013 154.916 104.013 151.791C104.013 148.649 110.624 146.108 118.78 146.108C126.936 146.108 133.547 148.649 133.547 151.791C133.547 154.916 126.936 157.475 118.78 157.475ZM118.78 147.155C112.152 147.155 106.76 149.233 106.76 151.791C106.76 154.333 112.152 156.41 118.78 156.41C125.408 156.41 130.8 154.333 130.8 151.791C130.8 149.233 125.408 147.155 118.78 147.155Z" fill="#FFC022"/>
<path fill-rule="evenodd" clip-rule="evenodd" d="M108.34 151.791C108.34 149.576 113.028 147.773 118.78 147.773C124.532 147.773 129.22 149.576 129.22 151.791C129.22 154.006 124.532 155.792 118.78 155.792C113.028 155.792 108.34 154.006 108.34 151.791ZM128.756 151.791C128.756 149.662 124.275 147.945 118.78 147.945C113.268 147.945 108.804 149.662 108.804 151.791C108.804 153.903 113.268 155.62 118.78 155.62C124.275 155.62 128.756 153.903 128.756 151.791Z" fill="#FFC022"/>
<path d="M117.441 150.228L111.723 151.876V153.01L117.578 151.207C118.145 151.688 118.986 152.031 120.051 152.271C120.142 152.283 120.234 152.3 120.325 152.323V153.336H122.437V152.563C122.901 152.58 123.33 152.58 123.708 152.563V153.336H125.837V150.28H123.708V151.756C123.347 151.773 122.918 151.773 122.437 151.739V150.28H120.325V151.327C119.81 151.121 119.381 150.846 119.089 150.451L117.441 150.228Z" fill="#FFC022"/>
<path d="M104.013 148.784C104.013 151.927 110.624 154.468 118.78 154.468C126.936 154.468 133.547 151.927 133.547 148.784V146.106H104.013V148.784Z" fill="#FF931E"/>
<path d="M117.372 147.479V154.433C117.83 154.456 118.3 154.467 118.78 154.467V147.479H117.372Z" fill="#D17918"/>
<path d="M114.522 147.479V154.227C115.289 154.318 116.079 154.381 116.891 154.416V147.479H114.522Z" fill="#D17918"/>
<path d="M113.938 154.158V146.105H104.013V148.784C104.013 151.273 108.151 153.385 113.938 154.158Z" fill="#D17918"/>
<path d="M124.034 147.479V154.089C124.195 154.066 124.355 154.044 124.515 154.021V147.479H124.034Z" fill="#D17918"/>
<path d="M122.197 154.313C122.358 154.301 122.518 154.284 122.678 154.261V147.479H122.197V154.313Z" fill="#D17918"/>
<path d="M119.879 147.479V154.45C120.108 154.438 120.343 154.427 120.583 154.416V147.479H119.879Z" fill="#D17918"/>
<path d="M118.78 151.789C110.624 151.789 104.013 149.247 104.013 146.105C104.013 142.963 110.624 140.421 118.78 140.421C126.936 140.421 133.547 142.963 133.547 146.105C133.547 149.247 126.936 151.789 118.78 151.789Z" fill="#FF931E"/>
<path style="mix-blend-mode:multiply" opacity="0.4" d="M127.108 150.793C126.685 150.804 126.261 150.81 125.837 150.81C117.664 150.81 111.053 148.269 111.053 145.144C111.053 143.186 113.612 141.469 117.51 140.439C109.937 140.696 104.013 143.135 104.013 146.105C104.013 149.247 110.624 151.789 118.78 151.789C121.871 151.789 124.738 151.411 127.108 150.793Z" fill="url(#paint11_linear_1078_1336)"/>
<path fill-rule="evenodd" clip-rule="evenodd" d="M118.78 151.788C110.779 151.788 104.254 149.333 104.013 146.277C104.254 143.22 110.779 140.765 118.78 140.765C126.782 140.765 133.29 143.22 133.53 146.277C133.29 149.333 126.782 151.788 118.78 151.788ZM130.8 146.448C130.8 143.907 125.408 141.829 118.78 141.829C112.152 141.829 106.761 143.907 106.761 146.448C106.761 149.007 112.152 151.084 118.78 151.084C125.408 151.084 130.8 149.007 130.8 146.448Z" fill="#D17918"/>
<path d="M117.441 145.315L111.723 146.964V148.097L117.578 146.294C118.145 146.758 118.986 147.118 120.051 147.342C120.142 147.364 120.234 147.382 120.326 147.393V148.423H122.438V147.634C122.901 147.651 123.33 147.651 123.708 147.651V148.423H125.837V145.367H123.708V146.844C123.348 146.844 122.918 146.844 122.438 146.826V145.367H120.326V146.397C119.81 146.208 119.381 145.934 119.089 145.539L117.441 145.315Z" fill="#D17918"/>
<path fill-rule="evenodd" clip-rule="evenodd" d="M118.78 151.789C110.624 151.789 104.013 149.247 104.013 146.105C104.013 142.963 110.624 140.421 118.78 140.421C126.936 140.421 133.547 142.963 133.547 146.105C133.547 149.247 126.936 151.789 118.78 151.789ZM118.78 141.486C112.152 141.486 106.761 143.546 106.761 146.105C106.761 148.646 112.152 150.724 118.78 150.724C125.408 150.724 130.8 148.646 130.8 146.105C130.8 143.546 125.408 141.486 118.78 141.486Z" fill="#FFC022"/>
<path fill-rule="evenodd" clip-rule="evenodd" d="M108.34 146.105C108.34 143.89 113.028 142.087 118.78 142.087C124.532 142.087 129.22 143.89 129.22 146.105C129.22 148.32 124.532 150.123 118.78 150.123C113.028 150.123 108.34 148.32 108.34 146.105ZM128.756 146.105C128.756 143.993 124.275 142.259 118.78 142.259C113.268 142.259 108.804 143.993 108.804 146.105C108.804 148.217 113.268 149.934 118.78 149.934C124.275 149.934 128.756 148.217 128.756 146.105Z" fill="#FFC022"/>
<path d="M117.441 144.543L111.723 146.191V147.342L117.578 145.521C118.145 146.002 118.986 146.346 120.051 146.586C120.142 146.598 120.234 146.615 120.326 146.638V147.651H122.438V146.878C122.901 146.895 123.33 146.895 123.708 146.878V147.651H125.837V144.594H123.708V146.071C123.348 146.088 122.918 146.088 122.438 146.054V144.594H120.326V145.642C119.81 145.436 119.381 145.161 119.089 144.766L117.441 144.543Z" fill="#FFC022"/>
<path d="M104.013 143.1C104.013 146.242 110.624 148.784 118.78 148.784C126.937 148.784 133.547 146.242 133.547 143.1V140.421H104.013V143.1Z" fill="#FF931E"/>
<path d="M117.372 141.796V148.767C117.83 148.779 118.3 148.784 118.78 148.784V141.796H117.372Z" fill="#D17918"/>
<path d="M114.522 141.796V148.544C115.289 148.636 116.079 148.699 116.892 148.733V141.796H114.522Z" fill="#D17918"/>
<path d="M113.938 148.475V140.439H104.014V143.101C104.014 145.59 108.152 147.703 113.938 148.475Z" fill="#D17918"/>
<path d="M124.035 141.796V148.407C124.195 148.384 124.355 148.361 124.516 148.338V141.796H124.035Z" fill="#D17918"/>
<path d="M122.198 148.63C122.358 148.618 122.518 148.601 122.679 148.578V141.796H122.198V148.63Z" fill="#D17918"/>
<path d="M119.879 141.796V148.767C120.108 148.767 120.343 148.762 120.583 148.75V141.796H119.879Z" fill="#D17918"/>
<path d="M118.781 146.104C110.624 146.104 104.014 143.563 104.014 140.421C104.014 137.278 110.624 134.737 118.781 134.737C126.937 134.737 133.548 137.278 133.548 140.421C133.548 143.563 126.937 146.104 118.781 146.104Z" fill="#FF931E"/>
<path style="mix-blend-mode:multiply" opacity="0.4" d="M127.109 145.108C126.685 145.131 126.261 145.143 125.838 145.143C117.665 145.143 111.054 142.584 111.054 139.459C111.054 137.502 113.612 135.785 117.51 134.754C109.938 135.012 104.014 137.45 104.014 140.421C104.014 143.563 110.624 146.104 118.781 146.104C121.871 146.104 124.739 145.744 127.109 145.108Z" fill="url(#paint12_linear_1078_1336)"/>
<path fill-rule="evenodd" clip-rule="evenodd" d="M118.781 146.104C110.779 146.104 104.254 143.649 104.014 140.592C104.254 137.536 110.779 135.097 118.781 135.097C126.782 135.097 133.29 137.536 133.53 140.592C133.29 143.649 126.782 146.104 118.781 146.104ZM130.8 140.764C130.8 138.223 125.409 136.145 118.781 136.145C112.153 136.145 106.761 138.223 106.761 140.764C106.761 143.322 112.153 145.4 118.781 145.4C125.409 145.4 130.8 143.322 130.8 140.764Z" fill="#D17918"/>
<path d="M117.441 139.631L111.723 141.28V142.413L117.579 140.61C118.145 141.073 118.987 141.434 120.051 141.674C120.143 141.686 120.234 141.703 120.326 141.726V142.739H122.438V141.949C122.902 141.966 123.331 141.984 123.709 141.966V142.739H125.838V139.683H123.709V141.159C123.348 141.176 122.919 141.176 122.438 141.142V139.683H120.326V140.713C119.811 140.524 119.382 140.249 119.09 139.854L117.441 139.631Z" fill="#D17918"/>
<path fill-rule="evenodd" clip-rule="evenodd" d="M118.781 146.104C110.624 146.104 104.014 143.563 104.014 140.421C104.014 137.278 110.624 134.737 118.781 134.737C126.937 134.737 133.548 137.278 133.548 140.421C133.548 143.563 126.937 146.104 118.781 146.104ZM118.781 135.802C112.153 135.802 106.761 137.862 106.761 140.421C106.761 142.962 112.153 145.04 118.781 145.04C125.409 145.04 130.8 142.962 130.8 140.421C130.8 137.862 125.409 135.802 118.781 135.802Z" fill="#FFC022"/>
<path fill-rule="evenodd" clip-rule="evenodd" d="M108.341 140.42C108.341 138.205 113.028 136.402 118.781 136.402C124.533 136.402 129.221 138.205 129.221 140.42C129.221 142.635 124.533 144.438 118.781 144.438C113.028 144.438 108.341 142.635 108.341 140.42ZM128.757 140.42C128.757 138.308 124.275 136.574 118.781 136.574C113.269 136.574 108.804 138.308 108.804 140.42C108.804 142.532 113.269 144.249 118.781 144.249C124.275 144.249 128.757 142.532 128.757 140.42Z" fill="#FFC022"/>
<path d="M117.441 138.875L111.723 140.506V141.657L117.579 139.854C118.145 140.317 118.987 140.661 120.051 140.901C120.143 140.924 120.234 140.941 120.326 140.953V141.966H122.438V141.193C122.902 141.21 123.331 141.21 123.709 141.21V141.966H125.838V138.909H123.709V140.386C123.348 140.403 122.919 140.403 122.438 140.369V138.909H120.326V139.957C119.811 139.751 119.382 139.476 119.09 139.081L117.441 138.875Z" fill="#FFC022"/>
<g style="mix-blend-mode:multiply" opacity="0.6">
<path d="M88.1127 141.746C85.8977 141.214 83.1504 144.133 81.0727 148.821C81.0727 148.821 81.0727 148.827 81.0727 148.838C81.0956 148.895 81.1185 148.958 81.1414 149.027C81.1414 149.05 81.1471 149.073 81.1585 149.096C81.1929 149.176 81.2329 149.262 81.2787 149.353C81.2902 149.365 81.3016 149.376 81.3131 149.388C81.3474 149.456 81.3875 149.525 81.4333 149.594C81.4562 149.628 81.4733 149.657 81.4848 149.679C81.4962 149.691 81.5019 149.702 81.5019 149.714C81.479 149.748 81.4562 149.782 81.4333 149.817C81.3989 149.874 81.3703 149.926 81.3474 149.971C81.3131 150.006 81.2902 150.046 81.2787 150.092C81.2444 150.137 81.2158 150.189 81.1929 150.246C81.1814 150.28 81.1642 150.32 81.1414 150.366C81.1299 150.423 81.1127 150.481 81.0898 150.538C81.0784 150.572 81.0669 150.607 81.0555 150.641C81.0441 150.698 81.0326 150.761 81.0212 150.83C81.0097 150.864 81.004 150.893 81.004 150.916C80.9925 151.019 80.9868 151.116 80.9868 151.208V151.225V153.886C80.9868 153.978 80.9925 154.069 81.004 154.161C81.004 154.184 81.0097 154.213 81.0212 154.247C81.0212 154.304 81.0326 154.361 81.0555 154.419C81.0555 154.453 81.0612 154.487 81.0727 154.522C81.0956 154.579 81.1185 154.636 81.1414 154.693C81.1414 154.728 81.1471 154.756 81.1585 154.779C81.1929 154.859 81.2329 154.945 81.2787 155.037C81.2902 155.048 81.3016 155.06 81.3131 155.071C81.3474 155.14 81.3875 155.208 81.4333 155.277C81.4562 155.311 81.4733 155.34 81.4848 155.363C81.4962 155.374 81.5019 155.386 81.5019 155.397C81.479 155.432 81.4562 155.466 81.4333 155.5C81.3989 155.558 81.3703 155.609 81.3474 155.655C81.3131 155.689 81.2902 155.729 81.2787 155.775C81.2444 155.821 81.2158 155.872 81.1929 155.93C81.1814 155.964 81.1642 156.004 81.1414 156.05C81.1299 156.107 81.1127 156.159 81.0898 156.204C81.0784 156.25 81.0669 156.29 81.0555 156.325C81.0441 156.382 81.0326 156.445 81.0212 156.513C81.0097 156.548 81.004 156.576 81.004 156.599C80.9925 156.702 80.9868 156.8 80.9868 156.891V156.908V159.57C80.9868 159.661 80.9925 159.753 81.004 159.845C81.004 159.867 81.0097 159.896 81.0212 159.93C81.0212 159.988 81.0326 160.045 81.0555 160.102C81.0555 160.136 81.0612 160.171 81.0727 160.205C81.0956 160.262 81.1185 160.32 81.1414 160.377C81.1414 160.411 81.1471 160.44 81.1585 160.463C81.1929 160.543 81.2329 160.629 81.2787 160.72C81.2902 160.732 81.3016 160.743 81.3131 160.755C81.3474 160.823 81.3875 160.892 81.4333 160.961C81.4562 160.995 81.4733 161.024 81.4848 161.047C81.5306 161.104 81.5706 161.161 81.605 161.218C81.6279 161.241 81.6565 161.27 81.6908 161.304C81.7366 161.361 81.7824 161.413 81.8282 161.459C81.8511 161.493 81.874 161.522 81.8969 161.545C81.977 161.625 82.0571 161.699 82.1373 161.768C82.1602 161.791 82.1888 161.819 82.2231 161.854C82.2804 161.899 82.3376 161.945 82.3948 161.991C82.4406 162.025 82.4807 162.06 82.515 162.094C82.5723 162.14 82.6295 162.18 82.6867 162.214C82.7325 162.249 82.7783 162.283 82.8241 162.317C82.8813 162.363 82.9386 162.403 82.9958 162.437C83.0531 162.472 83.1046 162.506 83.1504 162.54C83.2534 162.598 83.3564 162.661 83.4594 162.729C83.5281 162.764 83.5968 162.798 83.6655 162.832C83.7227 162.867 83.7742 162.895 83.82 162.918C83.9001 162.964 83.9746 163.004 84.0432 163.038C84.1005 163.061 84.152 163.084 84.1978 163.107C84.2894 163.153 84.3752 163.193 84.4553 163.227C84.4897 163.25 84.5297 163.267 84.5755 163.279C84.8846 163.416 85.2166 163.553 85.5715 163.691C85.6058 163.702 85.6401 163.714 85.6745 163.725C85.7889 163.76 85.9034 163.8 86.0179 163.845C86.0408 163.857 86.0694 163.868 86.1037 163.88C86.596 164.04 87.1168 164.189 87.6663 164.326C88.6279 162.352 89.4692 160.016 90.1046 157.458C92.0449 149.542 91.152 142.502 88.1127 141.746Z" fill="#CCCCCC"/>
</g>
<path d="M76.2823 167.571C79.2013 168.721 83.992 163.501 86.9969 155.929C90.0018 148.34 90.0877 141.248 87.1686 140.097L84.6617 139.102L73.7925 166.575L76.2823 167.571Z" fill="#FF931E"/>
<path d="M79.991 154.659L86.4644 157.217C86.6476 156.794 86.825 156.364 86.9967 155.929L80.5061 153.354L79.991 154.659Z" fill="#D17918"/>
<path d="M78.9436 157.303L85.211 159.793C85.5773 159.118 85.9264 158.408 86.2584 157.664L79.8193 155.105L78.9436 157.303Z" fill="#D17918"/>
<path d="M84.9364 160.308L77.4499 157.355L73.7925 166.576L76.2823 167.572C78.5832 168.482 82.086 165.408 84.9364 160.308Z" fill="#D17918"/>
<path d="M82.4463 148.46L88.5935 150.898C88.6278 150.738 88.6679 150.578 88.7137 150.418L82.618 148.014L82.4463 148.46Z" fill="#D17918"/>
<path d="M88.1129 152.684C88.1587 152.524 88.2045 152.369 88.2503 152.221L81.9486 149.714L81.7769 150.16L88.1129 152.684Z" fill="#D17918"/>
<path d="M80.9182 152.341L87.3916 154.899C87.4718 154.682 87.5519 154.464 87.632 154.247L81.1758 151.688L80.9182 152.341Z" fill="#D17918"/>
<path d="M84.5066 154.933C81.5017 162.523 76.6939 167.726 73.792 166.575C70.8729 165.425 70.9416 158.333 73.9465 150.744C76.9514 143.171 81.7593 137.951 84.6612 139.102C87.5802 140.269 87.5115 147.344 84.5066 154.933Z" fill="#FF931E"/>
<path style="mix-blend-mode:multiply" opacity="0.4" d="M86.6535 146.829C86.5162 147.229 86.3674 147.63 86.2071 148.031C83.2022 155.603 78.4115 160.823 75.4925 159.672C73.6723 158.951 73.0198 155.929 73.5006 151.946C70.9422 159.054 71.028 165.476 73.7925 166.575C76.6944 167.726 81.5023 162.523 84.5072 154.933C85.6405 152.066 86.3616 149.267 86.6535 146.829Z" fill="url(#paint13_linear_1078_1336)"/>
<path fill-rule="evenodd" clip-rule="evenodd" d="M84.507 154.933C81.5536 162.386 76.8832 167.537 73.9469 166.627C71.1996 165.287 71.3198 158.316 74.2732 150.881C77.2266 143.446 81.8971 138.295 84.8333 139.188C87.5806 140.544 87.4604 147.498 84.507 154.933ZM83.9919 141.798C81.6223 140.853 77.6902 145.112 75.2519 151.276C72.8136 157.44 72.7621 163.21 75.1317 164.154C77.5013 165.099 81.4163 160.84 83.8545 154.676C86.2928 148.511 86.3615 142.742 83.9919 141.798Z" fill="#D17918"/>
<path d="M77.9991 153.8L77.4153 159.707L78.4799 160.136L78.9607 154.04C79.6132 153.663 80.2485 153.027 80.8495 152.117C80.9067 152.037 80.9582 151.963 81.004 151.894L81.9484 152.255L82.7383 150.297L81.9999 150.005C82.1888 149.576 82.3605 149.181 82.4807 148.82L83.2019 149.112L83.9746 147.138L81.1414 146.021L80.3515 147.979L81.7252 148.528C81.605 148.872 81.4504 149.267 81.2444 149.696L79.8879 149.164L79.1152 151.138L80.0768 151.516C79.699 151.911 79.2869 152.22 78.8061 152.34L77.9991 153.8Z" fill="#D17918"/>
<path fill-rule="evenodd" clip-rule="evenodd" d="M84.5066 154.933C81.5017 162.523 76.6939 167.726 73.792 166.575C70.8729 165.425 70.9416 158.333 73.9465 150.744C76.9514 143.171 81.7593 137.951 84.6612 139.102C87.5802 140.269 87.5115 147.344 84.5066 154.933ZM74.9253 151.139C72.487 157.303 72.4183 163.09 74.8051 164.017C77.1746 164.961 81.0896 160.72 83.5279 154.556C85.9661 148.391 86.0348 142.605 83.6653 141.66C81.2785 140.733 77.3635 144.974 74.9253 151.139Z" fill="#FFC022"/>
<path fill-rule="evenodd" clip-rule="evenodd" d="M75.3895 162.54C73.3289 161.733 73.3805 156.72 75.4925 151.362C77.6217 146.022 81.0215 142.33 83.0649 143.137C85.1254 143.962 85.0738 148.975 82.9618 154.316C80.8326 159.673 77.4328 163.365 75.3895 162.54ZM82.9103 143.567C80.9357 142.794 77.6904 146.314 75.6642 151.431C73.638 156.548 73.5865 161.339 75.544 162.111C77.5186 162.901 80.7639 159.364 82.7901 154.264C84.8163 149.147 84.8678 144.356 82.9103 143.567Z" fill="#FFC022"/>
<path d="M77.2952 153.526L76.7114 159.432L77.776 159.862L78.2568 153.749C78.8921 153.388 79.5275 152.753 80.1456 151.826C80.1914 151.757 80.2429 151.683 80.3001 151.602L81.2445 151.98L82.0172 150.006L81.2961 149.714C81.4849 149.302 81.6395 148.889 81.7768 148.546L82.4809 148.838L83.2707 146.863L80.4203 145.73L79.6477 147.705L81.0213 148.254C80.9011 148.58 80.7294 148.992 80.5405 149.422L79.184 148.889L78.3942 150.847L79.3729 151.242C78.9952 151.637 78.5831 151.946 78.1023 152.049L77.2952 153.526Z" fill="#FFC022"/>
<path d="M141.583 176.38C138.664 177.548 133.873 172.328 130.868 164.738C127.864 157.166 127.778 150.074 130.697 148.924L133.204 147.928L144.073 175.401L141.583 176.38Z" fill="#FF931E"/>
<path d="M137.874 163.484L131.401 166.042C131.218 165.619 131.04 165.184 130.868 164.737L137.359 162.179L137.874 163.484Z" fill="#D17918"/>
<path d="M138.922 166.128L132.654 168.618C132.288 167.931 131.939 167.222 131.607 166.489L138.046 163.93L138.922 166.128Z" fill="#D17918"/>
<path d="M132.929 169.133L140.415 166.163L144.073 175.401L141.583 176.379C139.282 177.307 135.779 174.216 132.929 169.133Z" fill="#D17918"/>
<path d="M135.419 157.285L129.271 159.723C129.237 159.563 129.203 159.403 129.168 159.243L135.247 156.839L135.419 157.285Z" fill="#D17918"/>
<path d="M129.752 161.509C129.706 161.349 129.661 161.194 129.615 161.046L135.916 158.539L136.088 158.985L129.752 161.509Z" fill="#D17918"/>
<path d="M136.947 161.149L130.474 163.724C130.393 163.495 130.313 163.272 130.233 163.055L136.689 160.496L136.947 161.149Z" fill="#D17918"/>
<path d="M133.358 163.759C136.363 171.349 141.171 176.552 144.073 175.401C146.992 174.234 146.923 167.159 143.918 159.57C140.913 151.98 136.105 146.777 133.204 147.928C130.285 149.078 130.353 156.17 133.358 163.759Z" fill="#FF931E"/>
<path style="mix-blend-mode:multiply" opacity="0.4" d="M131.212 155.655C131.349 156.044 131.498 156.439 131.658 156.84C134.663 164.429 139.471 169.649 142.373 168.482C144.193 167.761 144.846 164.756 144.365 160.755C146.923 167.881 146.837 174.303 144.073 175.402C141.171 176.552 136.363 171.349 133.358 163.76C132.225 160.892 131.504 158.093 131.212 155.655Z" fill="url(#paint14_linear_1078_1336)"/>
<path fill-rule="evenodd" clip-rule="evenodd" d="M133.032 148.014C135.968 147.103 140.639 152.255 143.592 159.707C146.546 167.142 146.666 174.096 143.918 175.453C140.982 176.346 136.312 171.194 133.358 163.759C130.405 156.307 130.285 149.353 133.032 148.014ZM134.011 163.502C136.449 169.666 140.364 173.907 142.734 172.98C145.12 172.036 145.052 166.249 142.614 160.085C140.175 153.92 136.26 149.679 133.874 150.606C131.504 151.551 131.573 157.337 134.011 163.502Z" fill="#D17918"/>
<path d="M139.866 162.626L140.45 168.533L139.385 168.962L138.905 162.849C138.252 162.489 137.617 161.853 137.016 160.926C136.958 160.858 136.907 160.783 136.861 160.703L135.917 161.081L135.144 159.106L135.865 158.814C135.676 158.402 135.505 158.007 135.384 157.647L134.663 157.938L133.891 155.964L136.724 154.831L137.514 156.805L136.14 157.355C136.26 157.681 136.415 158.093 136.621 158.522L137.977 157.99L138.75 159.965L137.788 160.342C138.166 160.737 138.578 161.046 139.059 161.167L139.866 162.626Z" fill="#D17918"/>
<path fill-rule="evenodd" clip-rule="evenodd" d="M143.918 159.57C146.923 167.159 146.992 174.234 144.073 175.401C141.171 176.552 136.363 171.349 133.358 163.759C130.353 156.17 130.285 149.078 133.204 147.928C136.105 146.777 140.913 151.98 143.918 159.57ZM134.337 163.365C136.775 169.529 140.69 173.787 143.077 172.843C145.446 171.898 145.378 166.129 142.94 159.965C140.501 153.8 136.586 149.542 134.217 150.486C131.83 151.431 131.899 157.2 134.337 163.365Z" fill="#FFC022"/>
<path fill-rule="evenodd" clip-rule="evenodd" d="M134.904 163.141C132.792 157.801 132.74 152.77 134.801 151.963C136.844 151.156 140.244 154.83 142.373 160.188C144.485 165.528 144.536 170.542 142.476 171.366C140.433 172.173 137.033 168.498 134.904 163.141ZM135.075 163.072C137.101 168.189 140.347 171.726 142.321 170.937C144.279 170.164 144.227 165.356 142.201 160.256C140.175 155.139 136.93 151.602 134.955 152.392C132.998 153.165 133.049 157.955 135.075 163.072Z" fill="#FFC022"/>
<path d="M140.57 162.334L141.154 168.258L140.089 168.67L139.608 162.574C138.973 162.214 138.338 161.561 137.72 160.651C137.674 160.583 137.628 160.508 137.582 160.428L136.621 160.806L135.848 158.831L136.569 158.539C136.38 158.11 136.226 157.715 136.088 157.372L135.384 157.646L134.594 155.672L137.445 154.556L138.218 156.53L136.844 157.063C136.964 157.406 137.136 157.818 137.325 158.247L138.681 157.698L139.471 159.673L138.492 160.05C138.87 160.462 139.282 160.754 139.763 160.875L140.57 162.334Z" fill="#FFC022"/>
<path d="M86.8591 145.318L86.2581 143.807L85.6571 145.318L84.1289 145.936L85.6571 146.537L86.2581 148.065L86.8591 146.537L88.3873 145.936L86.8591 145.318Z" fill="white"/>
<path d="M130.216 143.704L129.615 142.176L129.014 143.704L127.485 144.305L129.014 144.906L129.615 146.434L130.216 144.906L131.744 144.305L130.216 143.704Z" fill="white"/>
<path d="M144.416 126.688L143.815 125.159L143.214 126.688L141.686 127.289L143.214 127.89L143.815 129.418L144.416 127.89L145.944 127.289L144.416 126.688Z" fill="white"/>
<path d="M108.031 154.796L107.412 153.268L106.811 154.796L105.283 155.397L106.811 155.998L107.412 157.526L108.031 155.998L109.542 155.397L108.031 154.796Z" fill="white"/>
<path d="M86.0519 81.2366C86.0519 81.2366 77.8785 87.1949 75.3201 91.7452C75.3201 91.7452 86.2408 83.6577 92.0789 81.2366H86.0519Z" fill="#DAB873"/>
<path d="M88.5073 81.2366C88.5073 81.2366 94.8091 84.5677 97.8826 91.7452C97.8826 91.7452 97.4877 85.6838 94.2081 81.2366H88.5073Z" fill="#DAB873"/>
<path d="M101.025 96.2266C101.025 96.2266 106.554 106.615 109.542 117.931C109.542 117.931 110.194 105.087 101.025 96.2266Z" fill="#DAB873"/>
<path d="M108.34 97.5488C108.34 97.5488 113.869 107.92 116.874 119.236C116.874 119.236 117.526 106.392 108.34 97.5488Z" fill="#E8C47B"/>
<path d="M99.6685 101.412C99.6685 101.412 108.941 99.9012 117.372 102.082C117.372 102.082 108.924 97.7033 99.6685 101.412Z" fill="#E8C47B"/>
<path d="M101.695 106.409C101.695 106.409 110.967 104.898 119.398 107.079C119.398 107.079 110.95 102.7 101.695 106.409Z" fill="#E8C47B"/>
<path d="M101.695 106.409C101.695 106.409 104.803 105.911 109.061 105.911C108.935 105.59 108.798 105.27 108.649 104.949C106.486 105.035 104.116 105.447 101.695 106.409Z" fill="#DAB873"/>
<path d="M106.76 100.914C106.6 100.593 106.44 100.273 106.28 99.9521C104.202 100.072 101.952 100.502 99.6687 101.412C99.6687 101.412 102.639 100.931 106.76 100.914Z" fill="#DAB873"/>
<path d="M76.6768 55.9262L88.5075 78.0595V54.4495C88.2786 54.541 88.0496 54.6326 87.8207 54.7242C87.7863 54.7471 87.7463 54.7643 87.7005 54.7757C87.4715 54.8673 87.2426 54.9589 87.0136 55.0504C87.0022 55.0504 86.9907 55.0562 86.9793 55.0676C86.7389 55.1592 86.4985 55.245 86.2581 55.3252C86.2123 55.3481 86.1608 55.3652 86.1036 55.3767C85.9204 55.4454 85.7316 55.5083 85.5369 55.5656C85.4797 55.5885 85.4167 55.6114 85.3481 55.6343C85.1306 55.7029 84.9131 55.7659 84.6956 55.8231C84.6841 55.8346 84.667 55.8403 84.6441 55.8403C84.4151 55.909 84.1862 55.972 83.9572 56.0292C83.8885 56.0406 83.8256 56.0521 83.7683 56.0635C83.5852 56.0979 83.4078 56.1322 83.236 56.1666C83.1674 56.178 83.1044 56.1895 83.0472 56.2009C82.8182 56.2467 82.5893 56.281 82.3603 56.3039C80.4544 56.4928 78.5312 56.2868 76.6768 55.9262Z" fill="#DAB873"/>
<path d="M73.5858 55.1711C73.3454 55.1025 73.0707 55.0166 72.7788 54.9136L82.6006 69.9725L75.406 55.6348C74.7878 55.4859 74.1811 55.3314 73.5858 55.1711Z" fill="#DAB873"/>
<path d="M126.215 54.5872C128.035 53.1791 128.412 51.153 125.15 50.8096C119.432 50.2257 115.637 55.171 109.954 55.5659L96.8523 81.2364H101.935L126.215 54.5872Z" fill="#DAB873"/>
<path d="M98.4321 74.9003L108.117 55.5315C106.142 55.3083 104.837 54.4154 103.566 53.4539L98.4321 74.9003Z" fill="#DAB873"/>
<path fill-rule="evenodd" clip-rule="evenodd" d="M83.0125 136.235C72.4352 136.235 63.8154 127.838 63.8154 117.501C63.8154 107.164 72.4352 98.7507 83.0125 98.7507C93.6069 98.7507 102.21 107.164 102.21 117.501C102.21 127.838 93.6069 136.235 83.0125 136.235ZM83.0125 101.155C73.7574 101.155 66.2194 108.487 66.2194 117.501C66.2194 126.499 73.7574 133.831 83.0125 133.831C92.2676 133.831 99.8056 126.499 99.8056 117.501C99.8056 108.487 92.2676 101.155 83.0125 101.155Z" fill="#534741"/>
<path d="M76.1958 119.768L83.4076 129.401H88.4215L80.5057 119.528C82.549 118.566 84.1116 117.158 85.1418 115.338C85.2105 115.183 85.2792 115.046 85.3651 114.892H89.8295V111.303H86.3953C86.4812 110.53 86.4983 109.809 86.464 109.174H89.8295V105.585H76.419V109.174H82.8925C82.944 109.775 82.944 110.513 82.8238 111.303H76.419V114.892H80.9865C80.1108 115.75 78.8916 116.488 77.1574 116.969L76.1958 119.768Z" fill="#534741"/>
<path d="M106.76 80.3096C106.657 80.3096 106.548 80.2981 106.434 80.2752C97.4704 78.2834 80.9177 80.2752 80.7631 80.2924C79.8187 80.4126 78.9602 79.6399 78.8572 78.5753C78.7541 77.5279 79.441 76.5663 80.3854 76.4461C81.0894 76.3603 97.625 74.3856 107.086 76.4805C108.031 76.6865 108.632 77.6996 108.443 78.747C108.288 79.6743 107.567 80.3096 106.76 80.3096Z" fill="#FF931E"/>
<path d="M91.9068 75.5886C91.6206 75.6001 91.3401 75.6115 91.0654 75.623C90.5503 76.4472 89.8634 77.7865 89.4685 79.5723C89.7089 79.5608 89.9493 79.5494 90.1897 79.5379C90.6533 77.5976 91.4432 76.2583 91.9068 75.5886Z" fill="#BF6E17"/>
<path d="M87.0302 75.8462C86.744 75.8691 86.4636 75.8863 86.1889 75.8977C85.6566 76.7906 85.0384 78.1471 84.7122 79.8985C84.9411 79.8871 85.1758 79.8699 85.4162 79.847C85.8111 77.9754 86.5323 76.6189 87.0302 75.8462Z" fill="#BF6E17"/>
<path d="M89.4859 75.6914C89.1997 75.7143 88.9135 75.7315 88.6273 75.7429C88.1122 76.6015 87.4597 77.9408 87.0991 79.7266C87.3281 79.7037 87.5627 79.6865 87.8031 79.6751C88.2324 77.7691 89.0051 76.4126 89.4859 75.6914Z" fill="#BF6E17"/>
<path d="M84.5577 76.0347C84.2601 76.0576 83.9796 76.0805 83.7164 76.1034C83.2012 77.0306 82.6174 78.3871 82.3083 80.1213C82.5258 80.0984 82.7662 80.0756 83.0295 80.0527C83.3729 78.2325 84.0598 76.8589 84.5577 76.0347Z" fill="#BF6E17"/>
<path d="M81.2265 76.3608C80.7458 77.2708 80.2135 78.5586 79.9387 80.1727C80.1619 80.2586 80.3852 80.3101 80.6256 80.3101C80.9346 78.5243 81.5528 77.1506 82.0679 76.2749C81.7474 76.2978 81.4669 76.3264 81.2265 76.3608Z" fill="#BF6E17"/>
<path d="M105.643 76.1895C105.403 76.1551 105.157 76.1208 104.905 76.0864C104.424 76.945 103.875 78.1984 103.549 79.7953C103.778 79.8182 104.006 79.8469 104.235 79.8812C104.562 78.25 105.163 76.9965 105.643 76.1895Z" fill="#BF6E17"/>
<path d="M107.086 76.4813C107.075 76.4813 107.063 76.4756 107.052 76.4641C106.588 77.3742 106.107 78.6105 105.833 80.1387C106.039 80.1845 106.239 80.2303 106.434 80.276C106.451 80.276 106.485 80.276 106.519 80.276C106.777 78.7994 107.241 77.6146 107.687 76.756C107.515 76.6186 107.309 76.5328 107.086 76.4813Z" fill="#BF6E17"/>
<path d="M101.248 75.6912C100.985 75.6797 100.721 75.6625 100.458 75.6396C99.96 76.4467 99.3075 77.7345 98.9126 79.4516C99.153 79.4516 99.3877 79.4573 99.6166 79.4688C100.063 77.6658 100.784 76.378 101.248 75.6912Z" fill="#BF6E17"/>
<path d="M103.48 75.8974C103.217 75.863 102.959 75.8344 102.707 75.8115C102.209 76.6529 101.608 77.9064 101.248 79.572C101.477 79.5834 101.706 79.6006 101.935 79.6235C102.33 77.9064 102.999 76.6357 103.48 75.8974Z" fill="#BF6E17"/>
<path d="M98.9813 75.5711C98.7066 75.5711 98.4319 75.5654 98.1571 75.554C97.6592 76.3438 96.9895 77.6316 96.5774 79.4002C96.8178 79.4002 97.0525 79.4002 97.2814 79.4002C97.745 77.5286 98.5349 76.2236 98.9813 75.5711Z" fill="#BF6E17"/>
<path d="M95.8392 75.5195C95.324 76.3094 94.6372 77.6144 94.2251 79.4002C94.454 79.4002 94.6887 79.4002 94.9291 79.4002C95.4099 77.477 96.2169 76.1377 96.6634 75.5195C96.3886 75.5195 96.1139 75.5195 95.8392 75.5195Z" fill="#BF6E17"/>
<path d="M94.3109 75.5369C94.0247 75.5369 93.7443 75.5426 93.4695 75.554C92.9544 76.3439 92.2676 77.6661 91.8555 79.469C92.0959 79.4576 92.3363 79.4518 92.5766 79.4518C93.0403 77.5115 93.8645 76.155 94.3109 75.5369Z" fill="#BF6E17"/>
<g style="mix-blend-mode:multiply" opacity="0.8">
<path d="M106.76 78.661C106.657 78.661 106.548 78.6496 106.434 78.6267C97.4705 76.652 80.9177 78.6267 80.7632 78.6439C80.0077 78.7297 79.3208 78.2661 79.0118 77.5449C78.8916 77.854 78.8229 78.2146 78.8572 78.5752C78.9603 79.6398 79.8188 80.4125 80.7632 80.2923C80.9177 80.2751 97.4705 78.2833 106.434 80.2751C106.548 80.298 106.657 80.3094 106.76 80.3094C107.567 80.3094 108.288 79.6741 108.443 78.7469C108.529 78.3176 108.46 77.9055 108.305 77.5449C108.031 78.2146 107.43 78.661 106.76 78.661Z" fill="#B3B3B3"/>
</g>
<path d="M106.76 84.19C106.657 84.19 106.548 84.1785 106.434 84.1556C97.4707 82.181 80.9179 84.1556 80.7634 84.1728C79.819 84.293 78.9604 83.5203 78.8574 82.4557C78.7544 81.4083 79.4412 80.4467 80.3856 80.3265C81.0896 80.2407 97.6252 78.266 107.086 80.3608C108.031 80.5669 108.632 81.58 108.443 82.6274C108.288 83.5546 107.567 84.19 106.76 84.19Z" fill="#FF931E"/>
<path d="M91.9068 79.468C91.6206 79.4795 91.3401 79.4909 91.0654 79.5024C90.5503 80.3266 89.8634 81.6659 89.4685 83.4517C89.7089 83.4402 89.9493 83.4288 90.1897 83.4173C90.6533 81.4942 91.4432 80.1377 91.9068 79.468Z" fill="#BF6E17"/>
<path d="M87.0302 79.7256C86.744 79.7485 86.4636 79.7714 86.1889 79.7943C85.6566 80.67 85.0384 82.0265 84.7122 83.7779C84.9411 83.7665 85.1758 83.7493 85.4162 83.7264C85.8111 81.8548 86.5323 80.4983 87.0302 79.7256Z" fill="#BF6E17"/>
<path d="M89.4859 79.571C89.1997 79.5939 88.9135 79.6111 88.6273 79.6226C88.1122 80.4811 87.4597 81.8204 87.0991 83.6062C87.3281 83.5833 87.5627 83.5661 87.8031 83.5547C88.2324 81.6487 89.0051 80.2922 89.4859 79.571Z" fill="#BF6E17"/>
<path d="M84.5577 79.9141C84.2601 79.937 83.9796 79.9599 83.7164 79.9827C83.2012 80.91 82.6174 82.2665 82.3083 84.0007C82.5258 83.9778 82.7662 83.9549 83.0295 83.9321C83.3729 82.1119 84.0598 80.7383 84.5577 79.9141Z" fill="#BF6E17"/>
<path d="M81.2265 80.2404C80.7458 81.1505 80.2135 82.4383 79.9387 84.0523C80.1619 84.1382 80.3852 84.1897 80.6256 84.1897C80.9346 82.4039 81.5528 81.0303 82.0679 80.1545C81.7474 80.1774 81.4669 80.2061 81.2265 80.2404Z" fill="#BF6E17"/>
<path d="M105.644 80.0863C105.403 80.0405 105.157 80.0004 104.905 79.9661C104.425 80.8246 103.875 82.0781 103.549 83.675C103.778 83.6979 104.007 83.7265 104.236 83.7608C104.562 82.1296 105.163 80.8933 105.644 80.0863Z" fill="#BF6E17"/>
<path d="M107.086 80.3609C107.075 80.3609 107.063 80.3552 107.052 80.3438C106.588 81.2538 106.107 82.4901 105.833 84.0355C106.039 84.0698 106.239 84.1099 106.434 84.1557C106.451 84.1557 106.485 84.1557 106.519 84.1557C106.777 82.679 107.241 81.4942 107.687 80.6357C107.515 80.4983 107.309 80.4124 107.086 80.3609Z" fill="#BF6E17"/>
<path d="M101.248 79.5708C100.985 79.5594 100.721 79.5422 100.458 79.5193C99.96 80.3263 99.3075 81.6141 98.9126 83.3312C99.153 83.3312 99.3877 83.337 99.6166 83.3484C100.063 81.5455 100.784 80.2576 101.248 79.5708Z" fill="#BF6E17"/>
<path d="M103.48 79.777C103.217 79.7541 102.959 79.7255 102.707 79.6912C102.209 80.5325 101.608 81.786 101.248 83.4516C101.477 83.463 101.706 83.4802 101.935 83.5031C102.33 81.786 102.999 80.5154 103.48 79.777Z" fill="#BF6E17"/>
<path d="M98.9813 79.4508C98.7066 79.4508 98.4319 79.445 98.1571 79.4336C97.6592 80.2235 96.9895 81.5113 96.5774 83.2799C96.8178 83.2799 97.0525 83.2799 97.2814 83.2799C97.745 81.4082 98.5349 80.1033 98.9813 79.4508Z" fill="#BF6E17"/>
<path d="M95.8392 79.3992C95.324 80.189 94.6372 81.494 94.2251 83.2798C94.454 83.2798 94.6887 83.2798 94.9291 83.2798C95.4099 81.3566 96.2169 80.0345 96.6634 79.3992C96.3886 79.3992 96.1139 79.3992 95.8392 79.3992Z" fill="#BF6E17"/>
<path d="M94.3109 79.4163C94.0247 79.4163 93.7443 79.422 93.4695 79.4334C92.9544 80.2233 92.2676 81.5455 91.8555 83.3484C92.0959 83.337 92.3363 83.3312 92.5766 83.3312C93.0403 81.3909 93.8645 80.0344 94.3109 79.4163Z" fill="#BF6E17"/>
<g style="mix-blend-mode:multiply" opacity="0.8">
<path d="M106.76 82.5414C106.657 82.5414 106.548 82.53 106.434 82.5071C97.4705 80.5324 80.9177 82.5071 80.7632 82.5242C80.0077 82.6101 79.3208 82.1465 79.0118 81.4253C78.8916 81.7344 78.8229 82.095 78.8572 82.4555C78.9603 83.5201 79.8188 84.2928 80.7632 84.1726C80.9177 84.1555 97.4705 82.1808 106.434 84.1555C106.548 84.1784 106.657 84.1898 106.76 84.1898C107.567 84.1898 108.288 83.5545 108.443 82.6273C108.529 82.198 108.46 81.7859 108.305 81.4253C108.031 82.095 107.43 82.5414 106.76 82.5414Z" fill="#B3B3B3"/>
</g>
<defs>
<linearGradient id="paint0_linear_1078_1336" x1="104.08" y1="151.23" x2="104.08" y2="162.57" gradientUnits="userSpaceOnUse">
<stop stop-color="white"/>
<stop offset="1" stop-color="#D17918"/>
</linearGradient>
<linearGradient id="paint1_linear_1078_1336" x1="104.081" y1="145.547" x2="104.081" y2="156.887" gradientUnits="userSpaceOnUse">
<stop stop-color="white"/>
<stop offset="1" stop-color="#D17918"/>
</linearGradient>
<linearGradient id="paint2_linear_1078_1336" x1="104.079" y1="139.864" x2="104.079" y2="151.205" gradientUnits="userSpaceOnUse">
<stop stop-color="white"/>
<stop offset="1" stop-color="#D17918"/>
</linearGradient>
<linearGradient id="paint3_linear_1078_1336" x1="140.453" y1="140.323" x2="140.453" y2="151.663" gradientUnits="userSpaceOnUse">
<stop stop-color="white"/>
<stop offset="1" stop-color="#D17918"/>
</linearGradient>
<linearGradient id="paint4_linear_1078_1336" x1="140.451" y1="134.642" x2="140.451" y2="145.982" gradientUnits="userSpaceOnUse">
<stop stop-color="white"/>
<stop offset="1" stop-color="#D17918"/>
</linearGradient>
<linearGradient id="paint5_linear_1078_1336" x1="140.453" y1="128.956" x2="140.453" y2="140.296" gradientUnits="userSpaceOnUse">
<stop stop-color="white"/>
<stop offset="1" stop-color="#D17918"/>
</linearGradient>
<linearGradient id="paint6_linear_1078_1336" x1="140.451" y1="123.276" x2="140.451" y2="134.617" gradientUnits="userSpaceOnUse">
<stop stop-color="white"/>
<stop offset="1" stop-color="#D17918"/>
</linearGradient>
<linearGradient id="paint7_linear_1078_1336" x1="140.453" y1="117.594" x2="140.453" y2="128.934" gradientUnits="userSpaceOnUse">
<stop stop-color="white"/>
<stop offset="1" stop-color="#D17918"/>
</linearGradient>
<linearGradient id="paint8_linear_1078_1336" x1="127.101" y1="157.488" x2="127.101" y2="168.828" gradientUnits="userSpaceOnUse">
<stop stop-color="white"/>
<stop offset="1" stop-color="#D17918"/>
</linearGradient>
<linearGradient id="paint9_linear_1078_1336" x1="127.101" y1="151.81" x2="127.101" y2="163.15" gradientUnits="userSpaceOnUse">
<stop stop-color="white"/>
<stop offset="1" stop-color="#D17918"/>
</linearGradient>
<linearGradient id="paint10_linear_1078_1336" x1="127.1" y1="146.127" x2="127.1" y2="157.467" gradientUnits="userSpaceOnUse">
<stop stop-color="white"/>
<stop offset="1" stop-color="#D17918"/>
</linearGradient>
<linearGradient id="paint11_linear_1078_1336" x1="127.101" y1="140.443" x2="127.101" y2="151.783" gradientUnits="userSpaceOnUse">
<stop stop-color="white"/>
<stop offset="1" stop-color="#D17918"/>
</linearGradient>
<linearGradient id="paint12_linear_1078_1336" x1="127.101" y1="134.761" x2="127.101" y2="146.101" gradientUnits="userSpaceOnUse">
<stop stop-color="white"/>
<stop offset="1" stop-color="#D17918"/>
</linearGradient>
<linearGradient id="paint13_linear_1078_1336" x1="77.033" y1="143.021" x2="87.5756" y2="147.199" gradientUnits="userSpaceOnUse">
<stop stop-color="white"/>
<stop offset="1" stop-color="#D17918"/>
</linearGradient>
<linearGradient id="paint14_linear_1078_1336" x1="140.833" y1="151.842" x2="130.291" y2="156.019" gradientUnits="userSpaceOnUse">
<stop stop-color="white"/>
<stop offset="1" stop-color="#D17918"/>
</linearGradient>
</defs>
</svg>
